<svg xmlns="http://www.w3.org/2000/svg" xmlns:xlink="http://www.w3.org/1999/xlink" viewBox="0 0 117.168 112.853" height="376.177" width="390.56"><defs><linearGradient id="a"><stop offset="0" stop-color="#00579a"/><stop offset="1" stop-color="#009cdb"/></linearGradient><linearGradient y2="424.786" x2="301.014" y1="330.814" x1="301.114" gradientUnits="userSpaceOnUse" id="b" xlink:href="#a"/></defs><path fill="#fff61b" d="M2.614 1.817l39.46.339 40.557-.731 31.835.392-.69 19.849 1.034 18.158-.344 11.447-.69 15.45 1.034 15.817-.689 25.574-7.191.648-47.684 2.707-29.51-1.692-27.468-.339 1.726-21.174-2.386-29.943.66-16.465L.917 18.65z"/><path transform="translate(-242.972 -322.55)" stroke-miterlimit="3.864" fill="url(#b)" stroke="#000" stroke-width=".309" d="M272.933 422.968h-17.659v-16.922l-.975-25.136-1.554-12.851v-34.553l12.784-.318 17.01-.638 12.135-1.204 31.671-.319 23.113.956-.325 28.5-1.625 23.861 1.301 22.019-.327 18.198-42.904-.318z"/><g transform="translate(-28.098 -331.357)"><defs><path id="c" d="M252.745 333.506l12.784-.318 17.01-.638 12.135-1.204 31.671-.319 23.113.956-.325 28.5-1.625 23.861 1.301 22.019-.327 18.198-42.904-.318-32.645-1.275h-17.659v-16.922l-.975-25.136-1.554-12.851v-22.588z"/></defs><clipPath id="d"><use height="100%" width="100%" overflow="visible" xlink:href="#c"/></clipPath></g><path fill="#42b859" d="M104.86 61.226l.649 14.125v25.703H67.085l-37.45-.637H13.6l.326-2.479L18.729 91l8.306-9.417 8.631-10.94 9.282-12.921 4.803-3.435 6.103 9.099 4.802 8.143 6.429-7.824L79.87 47.349l14.734-20.994 10.905-14.444v16.037l.327 16.285z"/><path d="M50.242 103.576c-.723 2.006-.066 4.068-1.184 5.845l-.263.057c.131-2.062-.197-3.896-.197-6.016l-.198-.229c.329-.058 1.842-.515 1.842.343zM50.813 58.078c-.355.087-2.346-.188-2.701-.101l.517-.536c.355.001 1.917.508 2.184.637z"/><path stroke-miterlimit="3.864" fill="none" stroke="#000" stroke-width="1.314" d="M61.773 71.98h-.018"/><path d="M50.224 87.32c1.801-2.354 3.302-5.885 5.402-8.386 1.324-2.043 2.076-4.245 3.661-6.231-1.667-2.178-3.113-5.549-4.596-7.815-.396-1.003-1.399-1.699-1.376-2.919-.875-1.612-1.983-3.094-2.587-4.75-1.224.262-2.42-.262-3.495-.174-.235.13-.295.304-.27.522 1.083.305 2.416.305 3.52.393.339.175-.081.392-.049.523-1.531-.261-2.88.392-4.439.436-.327.653.529.523.82.741.784.174 1.588.13 2.44.043-1.186 1.308-3.135.262-4.682 1.133.315.436 1.039.305 1.504.566.589-.13 1.099.13 1.62.262-.027.305-.452.087-.738.305-1.233.348-2.259.392-3.427.522-.149.174-.513.262-.311.48.917.174 1.754.261 2.618.522.134 0 .45-.044.381.218-.533.48-1.346.131-1.983.305-.934 0-1.864-.044-2.57.392.893.437 1.913.48 3.011.61.138-.043.219.044.255.131-.104.174-.121.348-.266.479-.373-.305-.602.261-.962-.174-1.119.566-2.247-.218-3.394.653l.283.305 3.727.087c.169.087.064.261.052.392-.949.654-2.548.174-3.611.609-.404.044-1.104-.086-1.435.131.008.392.505.305.76.435.974.043 2.178 0 3.104.088.174.522-.554.218-.84.435-.921.349-2.068-.234-3.046.246-.34-.174-.72-.331-1.135.277-.113.238 1.115-.043 1.583.175.921.13 1.741-.087 2.481.087-.314.523-.917.305-1.374.436-1.179.261-2.169.392-3.268.261-.146.13-.109.219-.129.437.679.348 1.521.392 2.432.13.333.261 1.006-.305 1.307.305.132 0 .327-.175.493-.043-.166.349-.691.261-.978.479-.978 0-2.041-.043-3.046.262-.355 0-.934 0-1.22.218-.064.218.057.349.178.479 1.285.044 2.393.567 3.677.131.255.131-.072.305.001.479-1.398.218-3.16.192-4.477.229l-.119.479c1.144.13 2.471.165 3.594.033a.272.272 0 01.053.393c-.864.218-1.801.262-2.614.393-.699-.131-1.917-.598-2.025.175.465.261.917.393 1.487.48 0 0 1.22.261 1.838.305.122.13-.198.532-.335.575-1.322-.13-2.329-.42-3.739-.552-.117.305-.666.295-.614.584.295.175.775.262 1.22.262 0 0 1.807.181 1.936.224.416.305.449.696-.116.785-.675.087-1.447-.218-2.198-.262-.4 0-.756 0-1.055-.13-.493.043-.699.348-1.071.523.918.174 1.698.393 2.672.436l.162.174c-.178.092-.208.209-.407.237h-2.29c-.271.102-.648.12-.675.405-.027.294.401.239.687.294h.713c.222.137.699.147.594.478l-.224.235c-.76.043-1.301.13-2.053.086-.4 0-1.167.131-1.042.698l2.214.087c.23-.087.433.13.417.306-.97.392-2.161.304-3.131.696-.012.131-.068.262.012.348.645.086 1.208.129 1.819.091.198-.219.601.286.312.58-.324.257-.667.245-.667.245-.969-.087-2.021.131-2.962.218-.093.044-.15.173-.162.305.44.043.885.043 1.358.217.497-.086 1.216-.174 1.397.263-.827.304-1.664.217-2.528.435-.299-.131-.716.043-1.075.087-.38.262-.828.305-1.192.393.958.218 3.36.434 4.426.434l.113.218c-.755.958-3.694-.173-4.802.262-.372.175-.739-.173-1.001.262.703.566 4.899.23 5.578.579l.526.441c-1.362.305-6.438-.28-7.674.592.283.305.965.13 1.297.392.453-.086.999-.218 1.386-.086-.359 1.002-1.51.479-2.286.697-.545.13-1.269-.218-1.782.523.344.13 1.031-.087 1.41.13.744.131 1.866 0 2.655.131l-.384.305c-.234.61-1.147.394-1.692.523-.34-.175-.675.087-1.066 0-.424.261-1.039-.305-1.313.261a.451.451 0 00-.016.12l-.18.246s1.774.218 1.904.262c.416.305.449.695-.117.784-.674.087-1.446-.218-2.197-.261-.4 0-.756 0-1.056-.131-.493.043-.698.348-1.069.522.917.174 1.697.393 2.671.436l.162.175c-.177.092-.208.209-.408.237h-2.289c-.271.102-.649.12-.675.405-.027.294.4.238.686.294h.713c.221.138.699.147.593.479l-.223.234c-.76.044-1.302.131-2.053.087-.4 0-1.168.13-1.041.697l2.214.087c.23-.087.433.131.416.305-.969.392-2.161.305-3.13.697-.013.131-.069.262.012.349.645.085 1.208.129 1.819.089.198-.218.601.286.312.58-.324.258-.667.245-.667.245-.97-.087-2.021.131-2.963.218-.093.044-.149.175-.161.304.44.044.884.044 1.357.219.497-.087 1.217-.174 1.398.261-.278.225-.571.297-.929.297-1.162 0-1.742-.084-2.903-.084l.33-2.967c.801-1.961 8.443-9.192 9.611-10.731 1.829-1.526 2.478-3.748 4.347-5.23 1.259-1.612 2.356-3.398 3.41-5.185 2.736-2.222 3.854-5.186 6.304-7.669 1.473-2.003 3.273-3.704 4.447-5.839 1.687-1.917 3.196-3.834 4.722-5.926 1.19-.872 2.496-1.525 3.866-.958 1.998 1.481 2.38 4.096 3.711 6.057.804 2.876 3.479 4.706 4.145 7.625.7.866-.044.156 2.201 3.293a74.422 74.422 0 002.98-4.079c1.63-2.048 3.305-4.053 5.019-6.188 1.375-2.243 3.355-4.385 5.034-6.494 3.216-5.795 8.071-10.337 11.744-15.871 2.597-4.009 5.599-7.938 8.286-11.86 1.63-2.047 3.841-5.075 5.554-7.209 1.766-2.875 4.764-6.923 6.755-9.712.996-1.027-.524 3.605-.713 5.297-.382.427-2.102.515-2.364.882-.149.7 2.803 1.26 2.739 1.324.15 1.288-2.963.258-3.227 1.251-.226.626 1.546 1 2.477.957.695-.305.484.39.27.563-2.233.654-1.323-.535-3.344.815.719 1.002 2.434.654 3.493.523.504.262 1.185-.306 1.565.173l-.725.61c-.514.393-1.378 0-2.074.305-.221.044-.502-.261-.621 0-1.113-.043-2.256.218-3.216.567-.082.13-.345.218-.205.348 1.001.436 2.229.131 3.205.087.384.566 1.362-.305 1.533.435-2.42.479-4.864.479-6.987 1.569 1.011.654 2.148.305 3.361.523.621 0 1.258.262 1.909 0 .179 0 .057.219.108.349-1.983.348-4.196.523-6.234.653-.26.131-.65.306-.682.566 1.541.611 3.239.785 4.875.611-.02.479-.643.479-.988.653-.945-.218-2.033.218-3.012.218-.763-.13-1.693-.087-2.149.566.419.348.874.566 1.369.697.801 0 1.471.044 2.264-.043.332.393 1.634-.217 1.323.654-2.035.174-4.042.044-5.929.523.009.174-.29.436.068.479 1.291.043 2.743.609 3.971.305.314.043.543.175.645.436-1.6.872-3.688 0-5.448.349-.396.087-.969.174-.942.697.366.218.864.392 1.357.479 1.256.218 2.665-.044 3.844.392-.149.567-.9-.218-.866.479-1.29-.044-2.622 0-3.766.218-.893-.043-2.158-.48-2.648.392-.021.436.459.261.688.392l3.202.044c.278.217.621-.044.979 0l.022.436c-1.749.566-4.085.087-5.736.827a.375.375 0 00-.435.219c.3.609 1.137.479 1.806.522 1.279-.174 2.747-.174 3.9-.217-.203.392-.898.697-1.519.741l-.081.13c-1.905.131-4.228-.087-5.969.653-.035.174.192.263.288.393l4.012.218c.288.436-.162.305-.327.567-.622 0-1.362.305-1.869-.044-.876.262-1.872-.087-2.707.087-.126.13-.357-.043-.436.174.197.392.729.348 1.13.348l2.62-.043c.18.043.188.218.197.393-1.12.696-2.699.261-3.933.436-.413-.219-.714-.044-1.059.174 1.146.698 2.819.392 4.202.479-.14.741-.875.261-1.302.609-1.2 0-2.445 0-3.683.132l-.214.173c.447.916 1.535.479 2.21.61.396-.044 1.055-.218 1.468.043-.187.698-1.227.35-1.795.523-.937-.043-2.043.044-2.963.305l-.206.305c.79.697 2.059.261 3.086.393.084-.088.27.043.276.174.231.174.526-.131.717.13.104.261-.201.393-.424.393-1.252-.131-2.291.393-3.514-.043-.426.348-1.424-.044-1.43.74 1.63.567 3.347.219 4.995.305.186.175-.024.393-.158.393-.601-.436-.636.609-1.15.087-1.327.131-2.55.566-3.853.305-.352.087-.71.043-1.011.217.478.654 1.568.262 2.238.35.45.087.997-.523 1.422-.043.271.086.802.043 1.124.261.009.175-.161.305-.291.393-.229-.131-.588-.175-.659.13-1.088-.393-2.074.305-3.199.043-.666 0-1.476-.173-1.846.436l.279.218 3.687-.043c.184.087.235.261.109.393-1.027.784-2.042.043-3.176.479-.453-.174-.971.131-1.457.218-.172.087-.385.262-.374.479l.184.13c1.254.175 2.752-.086 4.092.045.235.261-.114.391-.059.609-1.49.393-3.408-.369-4.768-.02l-.916.947c1.293.086 2.392-.501 4.919.055-.125.891-1.497.648-1.892.779-1.018.087-2.242.147-3.215.278-.131.375.31.546.578.674 1.645 0 1.882-.113 3.569-.157.409.175-.034.309.067.57-.918.305-.741-.283-1.597.371-1.17-.261-2.166.261-3.361.349-.259.131-.524.174-.734.392.28.262.26.741.788.654 1.327-.13 2.979 0 4.254-.261.1.218.538.086.423.436-.375.479-.848-.044-1.367.218-1.818.086-3.585.305-5.28 1.046-.131.043-.209.261-.2.436.911.436 1.963.13 2.894.086.695-.304 1.738.087 2.391-.174.099.174.196.349-.018.523-2.233.653-5.283.13-7.302 1.481.716 1.001 2.433.653 3.493.522.502.262 1.185-.304 1.565.175l-.725.61c-.514.391-1.378 0-2.075.304-.22.044-.502-.261-.622 0-1.112-.043-2.256.218-3.214.567-.084.13-.347.218-.205.348 1 .436 2.229.131 3.204.087.385.566 1.362-.305 1.534.436-2.421.479-4.865.479-6.988 1.568 1.011.654 2.149.305 3.361.522.621 0 1.257.262 1.91 0 .178 0 .055.218.107.349-1.982.348-4.196.523-6.234.653-.26.13-.652.305-.682.566 1.542.61 3.239.785 4.876.61-.021.479-.643.479-.99.653-.944-.218-2.032.218-3.011.218-.763-.13-1.693-.086-2.149.566.417.349.874.567 1.368.697.802 0 1.469.043 2.266-.043.331.392 1.634-.219 1.323.653-2.036.175-4.042.043-5.93.523.009.174-.289.436.068.479 1.291.043 2.691.482 3.919.177.314.044 2.657-.011 2.759.251-.255 1.753-5.752.312-7.511.661-.396.087-.969.174-.942.697.367.218.864.392 1.357.479 1.255.218-.304.483 3.87.149 1.576-.221 3.377-.516 4.277.073-2.555 1.452-7.791.649-8.936.867-.891-.043-2.158-.479-2.647.392-.021.436.459.262.687.393l3.203.043c.276.218.62-.043.977 0l.022.436c-1.747.567-4.085.087-5.735.828a.374.374 0 00-.434.218c.298.61 1.137.479 1.805.522 1.279-.174 2.747-.174 3.9-.218-.201.393-.897.697-1.519.741l-.081.13c-1.905.131-4.227-.087-5.968.654-.035.173.191.262.286.392l4.012.218c.29.436-.162.305-.326.566-.622 0-1.363.305-1.869-.043-.875.261-1.871-.088-2.707.087-.127.131-.357-.044-.436.174.198.393.73.349 1.128.349l2.622-.044c.18.044.189.218.198.393-1.121.696-2.699.261-3.935.436-.411-.218-.714-.044-1.058.174 1.146.697 1.618.556 3.001.643-.14.741-.876.261-1.304.609-1.198 0-1.242-.163-2.479-.032l-.214.175c.447.915.348.426 1.021.557.397-.043.46-.209.875.052-.188.697-.633.34-1.202.515-.935-.044-1.613-.11-1.774.357-.111.322 1.305.287.799.709 0 0-.9.441-1.08.8-.486.53-1.534.852-2.212.639z"/><path fill="#fff61b" d="M21.556 39.396L18.23 33.92l-1.391-3.261 1.218-9.076 1.216-1.533 1.588-3.005 3.302-1.789.782.681-.174 1.279-1.911 6.326v2.409l.434 2.386 1.676 2.591.502 1.425 1.36 1.846 2.655 3.129 2.544 1.472 5.325.084 3.586-1.386 1.738-.681-.609 2.579-5.064 3.259-8.041.17z"/><path d="M41.953 37.757c.056.109.168.055.225.055-.112.221-.394.332-.731.275.056-.33.45-.44.731-.552zM23.807 17.281c-.177.292-1.187-.159-1.217-.089-.147.337 1.132.441 1.132.441.031.278-1.119.251-1.119.361.169.11.867.169 1.092.169l-.009.427c-.564 0-1.479.092-1.591-.515-.113 0-.172-.065-.172.101-.113.331.115.23.059.506l.45.276 1.336.015c.112.588-.4.353-.175.408-.394.221-1.203.041-1.315.041-.112 0-.972-.216-.972-.105s.472.476.642.476c0 0 1.145-.029 1.145.358-.139.366.082-.295-.081.164-.338.11-1.789-.196-1.84.193.563-.166 1.133.434 1.696.268l-.3.625-.949-.103c0-.11-.057-.221-.169-.166-.113 0-.282-.055-.282.11.113.332 1.121.678 1.458.678 0 0-.228.271-.058.437-.281-.166-1.552.037-1.552-.46-.056 0-.281-.054-.225.11 0 .332 1.458.698 1.627.864-.17.11-2.729-.356-2.616-.025-.168.411 2.735.137 2.466.798-.62.166-1.283.269-1.884.32-.138.363 1.42.177 2.039.177.018.396-.063.365-.08.606l-2.655.202c-.35.359 2.806.423 2.806.423l.044.414c-.507-.165-2.721.013-3.227-.043.056.276 1.586.376 1.812.431.493.103 1.089-.048 1.371.007l.28.305c-.563-.111-2.6.05-2.761.289.055.221 2.343.078 2.513.132 0 0-.038.141.043.377-.394-.11-2.135.026-1.939.234.035.174 1.812.156 1.812.156.281.11.213.311.213.311-.282.055-1.922-.004-1.905.48l1.999.118c.933.311.441.475.441.475.041.026-2.077-.336-1.84.157.161.335 2.108.235 2.279.235.047.059.434.199.4.235.342.201-1.961.017-1.799.471.049.139 2.3.367 2.039.587-.393.221.402-.092.008.184-.169 0-1.239-.11-1.277.049l.114.172c.338.11.961.23 1.355.34l.239.498c-.62.055-1.321-.026-1.883.085l-.334.111c-.105.173.809.135 1.035.135.225.276.897.053 1.235.107.06.25.135.379-.053.408-.169.221-1.371-.04-1.145.153l-.469.056c-.422.086-.572-.024-.815.002-.056.055-.891-.105-.944.212-.056.221 1.288.188 1.457.132 0 0 2.843-.357 2.88.139.007.087-.795.325-.983.048-.947.077-1.841.295-2.007.404l-.079.282c1.069-.055 1.046.104 2.509-.024.418-.044.881-.239 1.219-.129.676.368-.209.434-.209.434.296.185-1.131-.117-1.09.46.225.11 2.024.159 2.024.159l-.465.212c-.731.332-1.208-.087-1.189.262l.263.202c.988-.272.383.291 1.246.07.394.166.208.04.488-.016l.216-.084c.779.284.248.624.417.624 0 0-2.353.024-2.134.152.281.276 2.01.351 2.573.239-.168.552.48.354.48.354-.675.221-2.065.283-2.686.171 0 .111.359.422.529.368l1.341.169s1.222-.158 1.785.173c-.45.441-2.034.159-2.541.435 0 0-.585-.001-.521.186.07.208 2.699.003 2.699.003l1.397.08c-.056.055.657-.129.807.35-.056.165-.254-.089-.794.122-.621-.079-1.493.036-1.322.37.675.111 2.726-.132 2.726-.132s1.123-.023 1.605.044c.394.056-1.013.221-1.013.221-.282.055-1.231.048-1.455.158.337.552 3.476-.256 3.587.185.226 0-.76-.107-.62.079l.768.068 1.01-.169c.506.055.633.11.915-.276.507.166 2.016-.052 2.129-.604.112 0 .281.055.338-.056.112-.166.506-.221.619-.441.281.11.338-.221.506-.276h.225c-.112.221.236.136.405.136l.383-.024c0 .606-.243.266-1.125.606-.17 0-.338-.056-.45.056.056.275 1.265-.078.806.504 0 0-.388.161-.782.106-.114 0-1-.132-1.053.159-.054.238 1.538.185 1.538.317.001.61-1.59.114-1.59.114l-.965.197c-.338.055-.806-.224-.863.217l2.528.106c-.282.056-.189.053-.189.053-.755.582-3.13.212-2.914.529.112.276 1.079-.016 1.079.371-.507.497-.411.196-.411.196 0 .166-.844-.11-.901.276-.45.166-1.014.11-1.577.11l-.056.11c-1.97-.055-4.166.221-5.799-.221h-.789v-.166c-.844.11-1.014-.552-1.801-.497-.395-.11-.507-.662-1.126-.497-.338-.221-.62-.386-.958-.498l-1.348-1.427c-.619-.276-1.238-.883-1.576-1.49-.282-.331-.845-.441-.789-.993-.506-.056-.168-.662-.675-.662a3.483 3.483 0 00-.619-1.38l-1.013-1.324c.112-.719-.225-1.05-.225-1.767h-.113c-.282-1.27-.112-2.814-.112-4.195.225-.497.056-1.27.112-1.932h.113c.055-.606.168-1.104.449-1.545.17-.607.057-1.436.564-1.821v-.276c.337-.11.169-.552.506-.717v-.442c.225-.166.338-.497.619-.662.057-.773.845-.828.845-1.711.789-.275.789-1.27 1.521-1.601.068.224 1.173.563 1.173.563zm.692-1.161c-.845-.276-.619 1.27-1.464.441.507-.165.845-1.103 1.464-.441zm.056-1.931c.056.497-.563.166-.844.276v.11c-.113.11-.282.055-.45.055-.169.498-.788.387-1.014.718-.168.11-.225.331-.45.221-.281.275-.731.275-.844.662a1.724 1.724 0 01-.451.442c-.337.055.057.552-.337.497-.282.551-.788 1.103-.957 1.71-.338.111-.282.441-.451.663.057.607-.619.607-.337 1.324-.676.441-.619 1.38-.901 2.208h-.112v.718c-.226.331-.17.938-.507 1.158-.282 1.049 0 2.429-.168 3.533h-.169v2.594h.169c0 1.159.562 1.821.676 2.925.168.221.394.441.337.884.845.331.957 1.27 1.239 2.097.281.056.337.387.506.497.169.386.45.552.507.938.563.11.282.938.789 1.104.675 1.16 1.97 1.546 3.097 2.264.281.275.619.552 1.013.717.282.331.845.276 1.126.553h.225c.394.166.901.221 1.182.441.958-.11 1.521.275 2.478.221v.11c.225.055.675-.11.788.166 1.858-.055 3.885.11 5.63-.166v-.11c.563.055.844-.331 1.464-.221v-.11c1.295 0 1.915-.718 2.759-1.214.281-.386.844-.497 1.069-.883.619-.552.901-1.324 1.183-2.152.225-.387.337-.884.394-1.49h.112v-1.104l-.274-.172c-.113-.056-.458.007-.458.007-.338 0-.619.386-.844.497-.676.331-1.183.717-1.915.938-.225.221-.405.327-.856.217 0 .441-.776.17-.833.445a42.266 42.266 0 01-3.828.166l-.113-.166c-.901.166-1.52-.221-2.421-.165 0 0-.516-.207-.685-.317 0 0-.764-.304-1.012-.663-1.355-.475-3.415-4.837-3.64-4.671-.226-.11-2.544-5.002-2.433-5.499h-.112c-.226-1.214-.451-2.373-.338-3.753.112-.387.225-.828.45-1.104.057-.166-.112-.498.169-.553-.169-.938.225-1.324.394-2.097.226-.166.226-.386.394-.662-.225-.607.507-.498.451-.994.281-.221.281-.772.563-1.048v-1.049h-.113c-.169-.221-.056-.552-.112-.772-.397-.334-.678-.721-1.185-.941zM88.696 51.103c.189-.127 1.077-.953 1.14 0-.062.255.127.381.253.635.443-.19 1.076-.572 1.582-.38.569.571-.949 1.333.19 1.714.442-.381.695-1.081 1.455-.762.316.635.062 1.334.253 1.905.634.127.443-1.333 1.329-.571.127.063.254.19.38.127 0 .317-.506.572-.442 1.016.569 1.079 1.328-.318 1.961.508-.063.444-.759.889-.253 1.396.189-.507.759-.38 1.14-.254-.064.318-.254 1.016.126 1.27.316-.38.696-.317 1.141-.38.188.698.378 1.524-.128 2.032.444-.126.506-.953 1.203-.89 1.266.636-.443 1.335.19 2.16.314-.318.568-.445.568-.825.316-.127.886-.127.886.317 0 .635-.569.89-.759 1.524-.317-.127-.381.254-.57.38 0 1.017-1.266.572-1.835.89-5.568.508-11.012.19-15.821-2.731-.254-.635-.442-1.144-.38-1.842.38-.064.76-.572 1.139-.126 3.418 3.048 8.354 3.302 12.91 3.048v-.381c-1.962-1.715-3.416-3.684-5.442-5.145-.126 1.079-.948 1.714-1.708 2.478-.948.062-2.09.253-2.911-.509-.634-.889-1.076-1.842-.95-3.047-.126-.573 1.267-1.335 0-1.588-.568-.509.697-.889-.062-1.46.062-.445.379-1.207.696-1.207.316.19.253 1.016.823.635.314-.445.568-.699.822-1.144.505.255.441 1.144 1.074 1.207zm.317 4.256c-.254.318-.254.698-.634.953-.379-.381-1.519-.127-1.203-1.08.064-.444.381-1.016.887-1.016.317.381 1.075.507.95 1.143zM44.471 70.571c.139-.094.788-.698.834 0-.046.187.093.28.187.466.325-.14.788-.419 1.159-.279.417.418-.695.978.139 1.257.325-.279.51-.792 1.067-.559.231.465.046.977.186 1.396.464.093.325-.978.974-.419.093.046.185.14.278.093 0 .233-.372.419-.325.745.417.791.974-.232 1.438.373-.047.325-.557.651-.186 1.023.139-.373.557-.279.835-.186-.047.232-.186.744.093.931.232-.279.51-.233.834-.279.139.512.278 1.117-.092 1.488.324-.092.371-.697.88-.651.928.466-.324.978.139 1.583.233-.233.418-.326.418-.606.232-.093.649-.093.649.232 0 .466-.417.652-.557 1.118-.231-.093-.277.186-.417.279 0 .745-.928.419-1.345.652-4.082.373-8.07.14-11.595-2.001-.186-.466-.325-.838-.278-1.35.278-.047.557-.418.834-.093 2.505 2.234 6.123 2.42 9.462 2.234v-.279c-1.438-1.257-2.505-2.7-3.988-3.771-.093.792-.696 1.257-1.253 1.815-.695.046-1.53.186-2.133-.372-.464-.652-.788-1.35-.696-2.234-.092-.418.928-.977 0-1.164-.417-.373.51-.652-.046-1.07.046-.327.278-.885.51-.885.232.14.186.745.603.465.231-.325.417-.512.603-.837.371.187.325.838.789.885zm.232 3.12c-.186.232-.186.512-.464.698-.278-.279-1.113-.094-.881-.791.047-.326.278-.745.649-.745.232.278.789.371.696.838z"/><path d="M81.673 0c-4.75.426-7.915.649-12.607 1.396l-.119-.107c-2.672.587-4.051-1.118-6.485-.639-4.217-.319-9.073.853-13.23.906-.712 0-1.306-.32-1.959-.212-1.366-.374-2.613-.054-3.979-.267-.356.106-.594.106-.831 0-3.385-.107-6.057.267-9.146.159-.416 0-.831-.053-1.188.107-1.604-.374-3.326.159-5.167.053-.416 0-.891-.213-1.247-.053-2.91-.107-5.938 0-8.611-.107-1.069.16-2.019-.053-3.029.16-3.088-.107-6.473-.461-9.442-.515-1.367-.267-2.079.534-3.326-.213C.772.828.178 1.201 0 1.681c.119.479-.118 2.061.298 2.433.178 1.066.296 2.292.296 3.304.536 2.506-.296.59-.296 6.934-.476 5.01.653 9.754.119 14.923.95 4.104-.059 8.315.594 12.366-.416 2.985.297 6.876-.653 10.021a24.36 24.36 0 01.653 5.489c-.178 3.572.416 7.142.416 10.5-.179 3.731 1.426 7.409 1.128 11.247-.416 3.197.535 6.449 0 9.594-.237.64.238 1.6-.119 2.185.475.8-.356 1.493 0 2.346-.594 4.584-.891 8.741-1.128 13.378-.119 1.332.831 2.611 0 3.891.237.586.831 1.013 1.425 1.173.891-.426 1.543.16 2.435-.106.178.159.298.054.476 0 3.8-.107 7.423-.639 10.985-.533 2.376-.105 4.514.053 6.948-.267 7.185.267 14.253 1.545 21.378 1.601 2.672 0 5.048.265 7.78.265 1.781.161 3.859.213 5.582.428 2.85 0 5.523-.32 8.312-.374 4.277.266 8.255-.692 12.412-.641 1.842-.319 3.979-.104 6.058-.372.594.479.892-.319 1.543-.053 2.198.425 4.396-.534 6.415-.215.178-.372.534-.052.831-.052 2.435-.215 4.929-.533 7.602-.693l.118.106c1.663-.319 3.741-.373 5.643-.426.652 0 1.246.053 1.958-.053.654-.215 1.248.105 1.841-.107.298 0 .653-.268.892 0l4.75-.96.476-.479c-.237-.374-.593-.055-.832-.32-.534-1.066-.118-2.132-.475-3.358-.772-4.904-.06-9.914-.06-14.871.773-2.452-.177-5.33 0-7.729-.296-1.972 1.308-3.731-.296-5.33.296-2.131-.179-4.21-.119-6.29-.714-6.876-.237-14.498.415-21.107 1.011-4.423.714-9.114-.059-13.325a95.129 95.129 0 01-1.188-10.713c.178-4.797-.028-10.483-.088-15.493 0-1.119-.224-1.971.075-3.09.237-4.104 0-2.354 0-2.354-.06-.533.844-2.999.369-3.266-.415-.159-.951-.586-1.366-.159l-4.632-.107C103.27.383 97.034.436 91.155.276c-1.068.16-2.078-.054-3.087.16C86.584.329 83.336.053 81.673 0zm27.283 99.847c.714-.055 1.299.111 1.947-.168.455.113 1.363.279 1.56.727-1.233.446-2.338.11-3.638 0-.324.167-.713-.168-1.167-.112l.129-.726c.325.502.714.111 1.169.279zm2.922-2.072c.194.28.779.224.844.615-1.688.166-3.571.056-5.063-.111.063-.112-.066-.168-.131-.224.845-.446 1.688.112 2.467-.39.649.054 1.428.167 1.883.11zm-1.169-1.877c.584-.447 1.363.223 1.948-.112v.224c-1.558.391-3.441-.224-4.87.558a.883.883 0 01-.129-.893c1.103.39 1.883-.167 3.051.223zm1.885-1.99c-1.687.447-3.376.28-5.064.67-.065-.112-.196-.224-.13-.391.455-.335 1.162-.333 1.617-.724 1.297.113 3.597-.357 3.577.445zm-.393-2.302c-1.363.725-2.922.167-4.481.725l-.064-1.004c1.429.669 2.922-.224 4.545.279zm.06-2.035c-.319 1.253-3.955.271-5.059.605.129-.334-.261-.669.063-.949 1.366.223 3.826-.047 4.996.344zm.202-2.333c0 .168.259.335.064.503-1.298.278-2.793.055-4.351.39-.649-.168-.845-.335-1.299-.055l.13-.838 2.792.168c.845-.447 1.624 0 2.664-.168zm-4.026-2.787l5.067.977c.191 1.646-5.328-.196-6.108-.474l-.193-.67c.455-.167.78.502 1.234.167zm-1.171-2.231c1.884.167 3.897-.224 5.586.558-.195.446-.521.279-.975.224-1.494.446-3.116-.224-4.74.056l-.39-1.116c.326-.056.326.111.519.278zm-.193-2.669c.323-.502.91.167 1.299-.056.584-.168 1.169.335 1.753.056.584.391 1.622 0 2.467.223.391-.111.261.168.391.335l-.13.224c-2.078-.224-4.157.278-6.169.501-.001 0 .064-1.394.389-1.283zm5.476-2.928l.071.858c-1.817.167-4.35.335-5.844.781l-.064-1.116c1.948.615 4.021-.468 5.837-.523zm-2.945-3.929l2.401.086c-.064 1.339-3.244.082-4.022.361-.196-.503-.587.055-.91.055-.195.279-.195.67.323.614 1.299.334 4.305-.007 4.737 1.717-1.428-.335-3.893-.768-5.386-1.103l-.454.335.064-2.4c1.039.614 2.209-.111 3.247.335zm-2.921-2.685c.713-.223 4.959.139 5.804.084-.226 2.421-5.284.195-6.064 1.032l-.129-1.339zm4.74-1.543c-.649.224-1.624.112-2.208.056-.778.167-2.208-.167-2.986.167-.132-1.228 1.754-.335 2.532-.782.909.28 2.142-.111 2.662.559zm.909-5.505c-.39.893-1.232 1.284-2.402 1.339a15.721 15.721 0 00-3.246 0c-.195.168-.52.391-.39.725.194.112.52.335.714.112.454.167.976-.056 1.364.279.129 0 .065-.111.065-.167 1.232.278 2.466.112 3.7.726v.167c-2.077.502-4.025-.112-6.04.669-.129-.224-.063-.334 0-.558v-3.014c1.886.112 4.286-.11 6.235-.278zm-2.857-1.756c1.038-.167 1.817-.112 2.791.28v.167c-1.947.112-4.283.447-5.973-.055 0-.391.584-.336.909-.559.715.167 1.493 0 2.273.167zm2.078-1.878c.324.112.909-.613 1.104 0-.715.447-1.558.335-2.273.335l-3.7.28c.583-1.061 2.142-.447 3.311-.727.454.057 1.298-.39 1.558.112zm.713-2.238c-.583.837-1.883.391-2.856.67-.715.112-1.427.167-2.144.224-.453-1.172 1.3-.503 1.884-.894.715.279 1.688-.224 2.533.167.129-.111.389-.167.583-.167zm1.17-1.989c-.454.669-1.753.669-2.403.613-1.104.112-2.467.112-3.571.28V54.71c1.818.055 4.416-.726 5.974.39zm.455-2.204c-1.819.503-3.962.223-5.908.503-.066-.335-.196-.837.063-1.061 1.883.391 4.091.001 5.845.558zm.195-2.825c-.131.391.389.725 0 1.004-1.948.28-4.025.112-6.039.168v-.894c2.013.335 3.961-.111 6.039-.278zm-.779-1.878c-1.689.391-3.573.613-5.261.781-.195-.39-.13-.725-.063-1.172.712.167 1.687-.335 2.4-.056 1.104-.112 2.079-.391 3.116-.112zm.518-3.393c-.259 1.004-1.688.669-2.467 1.116l-.259-.167c-.975.335-2.144.335-3.116.669-.325-.614.389-1.284 0-1.841 1.427-.167 3.246.223 4.869-.279.39-.056.909.168.973.502zm-.064-2.612c-1.689 1.34-3.896.67-5.975 1.004-.065-.278 0-.837-.129-1.172.973-.112 1.817-.446 2.726-.167 1.104.111 2.015-.447 2.988-.112zm-.649-2.805c-.194.502-1.04.39-1.559.613-1.234-.111-2.729.726-3.962.502 0-.167.13-.278.066-.446.779-.167 1.492-.391 2.467-.279l.194-.167c1.04.112 1.884-.558 2.794-.223zm-.78-2.642c.26.725-.648.725-1.168.893l-3.637.559c-.324-.279.064-.559-.065-1.005 1.559-.334 3.052-.502 4.74-.446h.13zm.389-2.292c.196.559-.649.614-1.038.837-1.494.447-2.922.335-4.48.335l-.13-.726c1.818-.391 3.44-.223 5.129-.782.196.113.585.002.519.336zm-.584-2.602c.194.446-.454.502-.714.669-1.299.279-2.986.224-4.351.502-.325-.278-.065-.78-.26-1.116 1.624-.055 3.441-.502 5.064-.558zm.065-3.106c-1.558.838-3.246 1.116-5.129 1.507-.26-.056-.26-.391-.26-.669 1.753-.447 3.506-.225 5.064-.949zm-.324-2.429c-1.429.837-3.116 1.395-5.13 1.172.065-.223-.129-.391-.064-.613 1.623-.057 2.986-.391 4.609-.725.195-.057.454-.001.585.166zm.324-3.015c-.26.559-1.233.669-1.818 1.117l-3.7.613c-.131-.167-.131-.669 0-.949.778-.391 1.883 0 2.792-.336 1.037.114 1.817-.779 2.726-.445zm-.26-2.511c-1.039 1.06-2.532.781-3.896 1.284l-1.363.056c-.649-.838.648-.502.975-.838.259.168.714-.278 1.037 0 .846-.278 2.273-.557 3.247-.502zm-.195-2.387c-1.492.949-3.44 1.116-5.128 1.284-.455-.781.713-.559 1.039-.893 1.298-.056 2.725-.67 4.089-.391zm-.389-2.443c-1.169.838-2.792 1.452-4.545 1.229-.261-.726.714-.726 1.17-.949 1.167.446 2.077-.949 3.375-.28zm-.194-2.569c-.845.669-2.272.614-3.312 1.116-.26-.224-.455.224-.714.167V14c.324.224.454-.279.714-.279 1.104-.111 2.273-.167 3.312-.334zm.583-2.004c-.647.893-2.056.779-2.964 1.169-.455-.056-1.256-.109-1.517-.388 1.429-.447 2.403-.167 3.637-.893zM58.898 103.29c-.133 1.775 0 3.208 0 4.87l-.593.974c-.263-.4-.132-1.661-.723-2.35.263-.974-.264-2.234.131-2.979l-.065-.572c.46.057.855.114 1.25.057zm47.228-.115c-.198 1.662.394 3.439-.198 4.814-.789.399-.658-.631-.855-.859-.131-1.262-.657-2.58-.46-3.896.525-.23 1.051.171 1.513-.059zm-44.322.058c.197 1.145.132 2.062 0 3.322-.525.229-.263.746-.525 1.089.328.516-.264.803-.396 1.375l-.198-.229c-.262-2.006-.524-3.552-.064-5.615zm-9.732-.475c-.263 1.146-.854 2.177-.395 3.324-.526.858-1.03 2.192-1.556 3.052-.198-1.947-.658-4.068-.46-5.9.394.113 1.885-.592 2.411-.476zm50.803.417l.132.173c.065 1.718.329 3.437-.526 4.755-.592.229-.722-.286-.855-.687 0-1.433-.328-3.21-.524-4.412.589.229 1.181.171 1.773.171zm-3.247-.057c-.395 1.375.065 3.208-.395 4.812l-.264.172c-.526-1.374-.591-3.323-.526-4.984.461.229.658-.23 1.185 0zm-18.699-.114c.396.802-.131 1.718.066 2.635-.264.859.196 1.72-.462 2.407-.657-1.49-.722-3.382-1.249-5.042.593.171 1.054.114 1.645 0zm-15.663.171c-.722.802.33 1.662-.329 2.464-.263 1.262-.131 2.636-.393 3.839l-.527.057c-.525-.858.264-1.488-.131-2.463-.262-.973-.131-1.948-.066-2.865-.394-.286-.526-.858-.328-1.202.723.285 1.053-.059 1.774.17zm-9.27 2.751l-.656 2.922c-1.053-1.604-.527-3.954-.79-5.673.46.287.921-.343 1.446 0 .262.917-.132 1.776 0 2.751zm40.954-.058c-.525.23.066.688-.197 1.032-.46.516 0 1.432-1.052 1.432-.197-1.948-.592-3.495-.526-5.214.592-.172 1.052-.058 1.645-.114zm-3.255-2.349c-.591 1.374.264 3.437-.46 4.984-.394.172-.987.172-1.184-.229.329-1.891.263-3.553.724-5.328.527-.114.855.172.92.573zm-3.156-.515c.198 1.718-.395 3.036-.395 4.698-.328.229-.065.917-.723.802-.131-1.604-.725-3.095-.396-4.641.132-.344-.394-.516-.064-.859zm-6.803 0c.132 1.775-.328 3.438.066 5.099l-.197.573c-.658-1.892-.328-3.667-1.053-5.501.264-.457.856 0 1.184-.171zm-8.775 0c-.064 1.89-1.184 3.78-.855 5.729-.722-.975-.263-2.407-.395-3.553.132-.745-.724-1.604-.196-2.234zm-3.091 0c-.133 1.432-.724 2.691-.724 4.126-.33.172.065.4 0 .629l-.264 1.089c-.79-1.718-.461-3.725-.986-5.558-.264 0-.789-.344-1.119.058.066 1.718-.064 3.036-.788 4.642.395.343-.065.744-.133 1.087-.591-1.546.198-3.838-.524-5.5-.198-.057-.396-.343-.594-.401.725-.229 2.105-.229 3.092 0 .724-.172 1.25-.288 2.04-.172zm-24.942.114c-.789 1.891.329 3.838-.723 5.729-.724-1.546-.132-3.609-.921-5.271l-.592-.458c.658-.23 1.513.057 2.236 0zm40.452-.114c-.133 1.947.065 4.011-.79 5.672-1.314-1.604-.789-3.61-1.314-5.558.591-.458 1.38.057 2.104-.114zm-9.567 0c-.394.63-.263.744-.064 1.374.263 1.721-.986 2.637-.594 4.298-.393-1.088 0-2.178-.329-3.381-.393-.745.132-1.547-.393-2.177.329-.23.987-.344 1.38-.114zm-34.593 0c-.723 1.718-.065 3.952-.855 5.5-.592-1.489-.198-3.667-.329-5.271-.132-.115-.395-.287-.066-.401.395.228.789.056 1.25.172zm-2.88-.172c-.197 1.775-.723 3.38-.526 5.157-.329.343-.132.63-.592.973-.46-.286-.132-.744-.329-1.203-.395-1.375-.263-3.381-.395-4.641l.264-.344c.46.114.986 0 1.578.058zm-3.313-.058c-.79.631-.132 1.89-.658 2.521.066 1.031-.066 2.293-.329 3.381h-.131c-.461-2.233-.066-3.839-.659-5.901.527-.345 1.185-.001 1.777-.001zm-3.248 0c0 1.031 0 2.119-.328 2.921-.198 1.205-.46 2.063-.986 3.095h-.527c.724-1.89 0-3.896.329-5.844 0-.114-.263-.286 0-.4.592-.058 1.052.056 1.512.228zm-3.313-.286c-.46.458 0 1.203-.396 1.718-.394 1.376.724 2.924-.92 3.84l-.395-.344c-.329-1.719-.394-3.324-.527-5.1.594-.286 1.382.116 2.238-.114zm-9.493.63c-.526.057 0 .287-.197.458-.198 1.375-.33 2.75-1.184 3.782-.724-1.604.197-3.495-.198-5.1.46.114.986-.286 1.644-.058zm5.767.858c-.46 1.262-.066 2.579-.658 3.782-.198-1.719-.854-3.782-.592-5.672 1.514-.056 1.25.918 1.25 1.89zm-2.783-1.832c-.262 1.661-.46 3.781-.394 5.328-.921-1.489-.46-3.781-1.053-5.386.395.287.921-.228 1.447.058zm-6.191 0c.329 1.719-.658 3.438-.658 5.157-.198.171-.263.457-.526.629l-.394-.688c-.329-1.719.394-3.667-.658-5.156.789.058 1.447.115 2.236.058zm-3.709 0c-.329.802.198 1.775-.329 2.577-.132.974-.328 1.893-.789 2.694-.592-1.317.131-3.668-.329-5.215.396-.228.987-.17 1.447-.056zm-3.461-.064c-1.704-.168-3.348.565-5.052.114-.117-.339-.764-.114-.529-.678.765-.339 1.586-.451 2.35-.677.176.226.47-.113.764 0 1.292-.17 2.174-.17 3.408-.564.058.79.294 1.976-.941 1.805zm1.177-3.924c-.647-.226-1.234.281-1.646-.451-.529.281-2.363 1.096-3.068 1.208-.999-.056-.927-.983-1.867-1.378 1-.396 1.938.225 3.055 0 1.058-.452 2.35-.283 3.408-.791zm-.354-3.485c-1.116.79-2.173.112-3.349.62l-.176-.168c-.764.226-1.586.395-2.526.112.647-.451 1.762-.338 2.645-.621 1.058-.169 2.467-.169 3.407-1.016v1.073zm0-2.902c-.294-.508-.999-.112-1.409-.169-1.646.452-3.408.79-4.995.564-.117-.282-.059-.451-.059-.847 2.115-.564 4.054.057 6.051-.507l.176.112.235-.338c.295.339.119.847.001 1.185zm.236-2.716a12.544 12.544 0 00-4.583.17c-.705-.282-1.351.112-1.88-.339 1.234-.847 3.291-.621 4.994-.676.354-.17 1.234-.17 1.528-.113zm-3.099-5.951c1.057-.17 2.158.472 3.157.529.294.732.178 1.938.178 2.615-.412.564-.999.169-1.528.338-1.88 0-3.701 0-5.581.113-.118-.113-.291-.635-.231-.86 2.292-.226 4.579.521 6.871-.382.117-.225.351-1.092.233-1.317-2.292-.45-4.466.282-6.815-.169 0-.281.646-.564 1.115-.508.823.282 1.836-.641 2.601-.359zm3.157-1.755c.118.225-.176.225-.294.338-1.938-1.129-4.23-.169-6.579-.564l-.177-.169c1.704-1.017 4.171-.339 6.169-.791 1.057-.394.587.678.881 1.186zm-.47-4.338c.353.565-.175 1.073.176 1.637-2.173.17-3.994 0-6.168-.225l-.529-.396c1.703-.903 3.583-.959 5.404-1.072zm-.352-3.583c.234.507.059 1.015.176 1.58-.236.282-.823.338-1.116.226l-.177-.226c-.293.338-.881.226-1.234.451-1.292-.338-3.231.847-3.818-.621l.646-.621c1.586-.507 3.466-.113 4.995-.903.116.17.351.057.528.114zm-.177-1.476c-.411-.169-.704-.733-1.233-.281-.411-.396-.588.281-.999.168-1.47.113-2.821.057-4.289-.338 2.114-.226 4.229-.451 6.345-.621l.117-.226c-.059.396.47.903.059 1.298zm-2.82-3.844l2.645.169c.058.17.117.339.117.564-1.939.113-4.112.226-5.993.452-.235-.169-.704-.282-.764-.621.646-.733 1.587-.339 2.467-.62h1.528zm2.585-2.04c0 .169.235.282.06.451-.587.113-1 .113-1.646-.113-.41.678-.939-.395-1.468.169l-.118-.169-3.29.282c-.118-.113-.059-.282-.059-.451 2.057-.846 4.406.17 6.521-.169zm0-2.386l.06.847c-2.116-.227-4.113-.113-6.229-.339 1.939-.959 4.054-.508 6.169-.508zm-.117-1.58c-1.646.056-3.055-.113-4.759.113l-1.059-.282c1.352-.282 2.938-.621 4.583-.677l1.174.056zm-.235-3.619c.059.338.059.846.059 1.128-1.821-.113-3.583.169-5.64.282-.293-.113-.586.057-.88-.282-.177-.338.294-.396.529-.452 1.878-.225 3.994-.337 5.932-.676zm-.529-1.7c-.764-.113-1.82-.225-2.76 0-.706-.225-2.618.391-3.264.334-1.027-1.107 4.204-.955 5.908-1.462.174.225.174.789.116 1.128zm-.352-3.906c0 .396.293.733.058 1.128-.529.339-1.469-.055-2.233.17-.117-.338-.293.056-.47.056-1.292-.169-2.408.395-3.467-.281v-.677c1.235-.565 2.82 0 4.054-.452.647.112 1.352.056 2.058.056zm0-2.153c-.118.17-.06.395-.06.621-.117-.168-.294 0-.411.113-1.527-.225-3.231.226-4.758-.338l-.353-.168c1.88-.284 3.761-.679 5.582-.228zm-.117-2.58c.118.283.118 1.072-.529.846-1.704-.056-3.759.508-5.464-.169-.059-.283.353-.452.646-.564 1.822.17 3.467-.282 5.347-.113zm-.236-2.698c-.176.395.412 1.241-.176 1.297-.939-.056-2.173-.169-3.055-.169-.646-.169-1.528.225-1.997-.338 1.527-.282 3.055-.79 4.582-.339.352-.056.236-.621.646-.451zm.059-1.845c-.469.677-.881-.338-1.41.282-1.058.056-2.056.112-3.231.169-.352-.057-.822-.169-.881-.621.53-1.411 1.822-.733 2.938-1.185.997.395 3.466-.959 2.584 1.355zm-.353-3.23c-1.821-.113-3.643 1.072-5.347.057.765-.733 2.057-.282 3.114-.621.883.507 2.527-1.072 2.233.564zm.294-3.32c-.176.396-.059 1.355-.88 1.016-1.175.508-2.409-.282-3.643.17-.647-.113-1.176.056-1.469-.677 1.174-.339 2.291-.169 3.524-.339.824-.057 1.764-.452 2.468-.17zm.353-2.737l.058 1.128c-1.116-.225-2.35.282-3.701-.056-.647.396-1.764.112-2.41 0 1.116-1.636 3.172-.451 4.7-1.072.471.394.823-.226 1.353 0zm.058-1.47c-.822-.056-1.645-.169-2.467.057-.354-.678-.765.226-1.41-.113-.882.281-1.763-.057-2.703-.226.058-.339.058-.846.528-.959 2.175-.283 3.996-.169 5.994-.791-.059.735.176 1.298.058 2.032zm-.175-3.768c-2.116.452-3.996.452-6.287.226l.587-.451c1.704-.339 3.76-.226 5.523-.565.47.113 0 .508.177.79zm-.295-2.573v.339H7.719c-1.411-.057-3.056.338-4.407-.226 1.468-.846 3.818-.056 5.522-.113zm-.058-3.617a5.6 5.6 0 010 1.975c-2.056-.282-3.819.169-5.582-.79.529-.396 1.292-.791 2.115-.903.529.056.882-.338 1.351-.508zm0-2.04v.396c-.705-.283-1.293.226-1.938-.057-.765-.113-1.47-.057-2.468.113a2.072 2.072 0 00-1.176-.17c1.705-.62 3.819-.282 5.582-.282zm0-2.131c.117.17.059.451.059.677-1.645 0-3.054-.057-4.583-.113 1.292-.564 2.937-.282 4.524-.564zm.117-2.322c-.117.227-.059.508-.117.791-1.468.338-3.231-.17-4.524.169-.353-.508-1.058.226-1.41-.395 1.352-.733 3.584-.226 5.229-.452.293.001.587-.338.822-.113zm-.117-1.686v.169c-1.938 0-3.819.282-5.875-.226l-.118-.113c.822-.621 2.174 0 3.172-.282.883.678 2.761-1.071 2.821.452zm-.06-2.744c-.059.338.118.677-.353.677-1.586.113-3.172.057-4.935-.056l-.176-.226c1.763-.452 3.702-.283 5.464-.395zm65.906-4.362l-.993.06c-.249-.883-.435-1.709-.373-2.709 1.117.471.931 1.767 1.366 2.649zm6.532.06l-2.235.06c-.124-.826-.186-1.827.062-2.593-.062-.295-.311-.648.062-.884.745 1.06 1.179 2.593 2.111 3.417zm-34.793-.235c.187.235-.062.589-.311.589-.807-.767-.435-2.416-.746-3.594l.311-.354c.995.766.498 2.357.746 3.359zm43.978.235v.53l-1.617-.059c.127-1.414.374-2.829.063-4.183 1.242.884 1.181 2.416 1.554 3.712zM25.824 4.065c.559 1.591.807 3.477.993 5.126l.311.295c-.249.235-.932.118-1.429.118.373-1.002-.372-2.062.062-2.946-.186-.942-.311-1.885-.125-2.71zm-5.224.943c.124 1.591.062 3.123.621 4.714l-.745.118c-.621-1.591-.373-3.417-.559-5.303l.249-.589zm63.616 2.711c-.247.294-.682.059-1.116.118.125-.943-.125-2.181-.435-3.182l.435-.766c.808 1.119.559 2.533 1.116 3.83zm-16.788-.12c-.435.296-.932-.293-1.242-.116-.497-1.121-.622-2.357-.745-3.594 2.111.235 1.428 2.356 1.987 3.71zm29.12.768l-1.801-.06.125-4.477c1.801.765 1.241 2.946 1.676 4.537zM10.217 6.54c-.186.943.249 2.003.374 3.005.186.295.683.649.993.295l.125-.589c-.062-1.592-.559-3.241-.125-4.773 1.056 1.061.062 2.829.807 4.007 0 .589-.124 1.295.063 1.709-.87.176-1.926 0-2.857-.119.311-1.178-.248-2.121-.062-3.358-.248-.707-.435-1.709-.124-2.475l-.062-.412c.931.471.744 1.708.868 2.71zm83.02-.177c-.497.531 0 1.296-.188 1.827-.187 0-.372.178-.62.118.373-1.649-.745-3.063-.559-4.536 1.801-.06.932 1.649 1.367 2.591zm-16.251-1.59c-.124.883.993 2.592-.371 2.946-.809-.06-.312-1.002-.125-1.356-.062-.883-.498-1.826-.312-2.591.621-.06.621.588.808 1.001zM43.775 8.131c-.372.176-.745.059-1.056-.118.062-.414.187-.825.373-1.237.062-.944-.435-2.003-.311-3.005 1.553.942.808 2.886.994 4.36zM86.53 3.712c.62 1.119.249 2.887.684 4.243h-1.305c.435-1.356-.496-2.652-.062-4.007.248 0 .435-.236.683-.236zm-23.407.766L64.18 7.6c-.933 0-1.987.178-2.92.12-.248-1.239-.372-2.417-.745-3.654.373.53.807 1.178 1.367 1.591.373.531-.373 1.414.496 1.768.497.175.497-.178.869-.413-.186-1.062-.559-2.298-.745-3.3.498-.059.434.471.621.766zM29.507 6.304c.125 1.002 0 2.18.374 3.123-.374.353-.932.059-1.18.059.249.177.311-.295.497-.413.124-1.827-.497-3.653-.559-5.362 1.055.59.372 1.768.868 2.593zm-5.782-1.531c0 1.649 0 3.476.31 4.831-.248.236-.931.236-1.304 0 .373.118.621-.413.745-.707-.372-.53-.186-1.532-.124-2.121l-.248-3.064c.496.118.31.707.621 1.061zm46.767.943c-.124.942 1.117 1.001 1.241 1.884h-2.174c-.31-1.295-.62-2.592-.62-4.006 1.18 0 1.242 1.355 1.553 2.122zm-21.784.234c-.496.767.622 2.181-.683 2.004.125-1.356-.249-3.005 0-4.361.683.531.559 1.533.683 2.357zM38.573 7.07c-.187.649.248 1.237.186 1.945l-1.18.059c.435-.707-.248-1.415.311-2.121l-.062-3.359c.993.825-.186 2.593.745 3.476zM15.004 6.069c-.435 1.415.497 2.77.125 4.125l-.932-.119c-.249-2.238-.435-4.419.186-6.481.931.471.56 1.532.621 2.475zm18.064 3.299c-.435-.059-.745.353-1.179.059.124-2.003-.249-3.595-.498-5.598l.187-.354c1.428 1.592.994 4.008 1.49 5.893zm66.046-5.479l.62 4.242c-.186.236-.807.176-1.241.059.187-1.591-.31-3.24-.434-4.772.496-.178.684.294 1.055.471zM40.992 8.661c-.186 0-.373-.059-.497.06-.062-.59-.373-1.474-.124-2.122.124-1.06-.249-2.238 0-3.181 1.553 1.237.435 3.711.621 5.243zm61.519-3.477c.124 1.003.372 2.475-.249 3.241-.808.118-.312-.767-.684-1.001.497-.708-.371-1.474-.31-2.298.31-.648-.124-1.237 0-1.768.994.118.932 1.179 1.243 1.826zM51.387 7.246c.186.119.497.353.559.531-.621.235-1.055-.178-1.614.177-.125-.471-.062-.708-.062-1.238.931-.707-.312-1.473 0-2.416l.062-.943c.807 1.062.807 2.535 1.055 3.889zM18.406 9.78c-.373.236-1.18.236-1.49.118.062-.707-.436-1.354.186-1.885-.435-1.473-.186-3.24-.373-4.655 1.863 1.591.683 4.361 1.677 6.422zm40.163-3.063l.436.942c-.559 0-1.305.354-1.739-.06-.373-1.354.062-3.062-.683-4.124l.061-.354c1.18.885 1.304 2.417 1.925 3.596zM54.76 5.656c0 .648.311 1.296.311 2.003l-1.614.119c.621.059.31-.59.497-.884-.372-1.355 0-2.593-.187-3.771.683.589.746 1.65.993 2.533zm50.844-1.885c.56 1.296.311 3.181.25 4.596-.435.354-.994.118-1.554.118.125-1.12.249-2.357-.125-3.477.312-.53.25-1.355.561-1.944.435-.059.744.353.868.707zM36.037 7.685c.059.32-.119.906.178 1.226-.416-.053-.772.373-1.247.107.416-.374-.179-1.279.237-1.652-.296-.746-.059-1.546-.416-2.292l.356-1.227c1.188.853.535 2.612.892 3.838zm71.589-4.468c1.116-.516 2.906-.404 3.96.256.729.46.99 1.215 1.094 2.188.09.866.206 1.546-.267 2.227-.499.725-1.085.923-1.88.923-.639 0-1.025.051-1.627-.203-1.4-.59-2.38-2.399-1.256-3.524.605-.607 1.333 0 .924.755-.531.53.069 1.162.731 1.44.453.19.745.122 1.228.122.396 0 .711-.044.959-.407.244-.351.053-.713.006-1.159-.05-.478-.11-.89-.469-1.116-.715-.447-2.214-.538-2.969-.188-.739.341-1.172-.972-.434-1.314zM3.311 4.62c1.115-.516 2.904-.404 3.958.256.729.46.991 1.215 1.094 2.188.089.866.205 1.546-.267 2.226-.499.726-1.085.923-1.879.923-.64 0-1.026.051-1.627-.202-1.401-.591-2.381-2.399-1.256-3.525.605-.607 1.334 0 .923.755-.53.531.07 1.162.731 1.441.453.19.748.121 1.229.121.396 0 .709-.044.959-.407.243-.35.052-.712.005-1.159-.05-.478-.112-.89-.47-1.116-.713-.446-2.213-.538-2.968-.188-.738.342-1.171-.971-.432-1.313zm1.894 99.124c1.115-.518 2.904-.404 3.958.256.729.46.99 1.216 1.093 2.188.09.866.207 1.547-.266 2.227-.499.726-1.086.921-1.879.921-.639 0-1.026.053-1.627-.2-1.401-.591-2.38-2.397-1.257-3.525.606-.605 1.335 0 .924.755-.53.532.07 1.162.731 1.441.453.19.746.12 1.229.12.396 0 .709-.044.958-.406.244-.35.052-.712.006-1.157-.051-.479-.112-.892-.47-1.116-.713-.448-2.213-.539-2.968-.19-.738.342-1.171-.972-.432-1.314zm102.2-1.666c1.114-.516 2.904-.404 3.958.257.729.46.991 1.214 1.094 2.188.09.866.206 1.546-.266 2.227-.499.726-1.087.923-1.879.923-.641 0-1.027.05-1.629-.202-1.399-.59-2.379-2.398-1.256-3.524.606-.607 1.334 0 .924.754-.529.531.07 1.163.731 1.441.454.19.747.121 1.229.121.395 0 .709-.044.959-.406.242-.35.052-.713.005-1.159-.051-.479-.112-.891-.471-1.116-.712-.447-2.212-.537-2.968-.188-.737.34-1.169-.974-.431-1.316zM76.367 9.923a5.621 5.621 0 012.494.106c.652-.159 1.424.107 2.078 0 2.257.054 4.691.48 7.066.374.652.053 1.604.267 2.197 0 4.275.586 8.553.267 12.887.212.594-.266 1.188.268 1.663.054.237 2.505-.237 3.521-.476 4.427-.355 10.234.891 20.094.238 30.808-.417 2.238-.357 4.531-.535 6.769.297 2.985.178 6.45-.059 9.541.416 1.438-.06 3.305.416 4.904-.061 5.597 1.188 10.713.533 15.937.475 5.809.119 11.939-.475 17.429-.653-.267-1.841.533-2.554-.213-1.426-.373-2.257.746-3.741.267-.654.479-1.365-.32-2.019.106-2.672-.16-5.701.213-8.137-.16-2.731-.853-5.7-.105-8.433-.213-2.79.16-5.7.479-8.313.267-2.138-1.014-4.395.054-6.413-.479-1.188.054-2.139.106-3.386.32-.653.159-1.067 0-1.78.159-1.9-.106-3.445-.854-5.524-.693-.593-.052-1.484-.32-2.078-.105-.416-.107-.95-.321-1.425 0-1.128-.16-2.02.319-3.147-.055-.95.214-1.96-.105-2.969.267-1.544 0-3.326.267-4.811 0-1.782.32-3.623-.053-5.226.054-1.841-.212-3.683-.266-5.345-.959-1.009.053-2.078-.053-3.088-.106-1.544-.16-2.968.319-4.276-.16-.949.105-1.544.16-2.494.214-.653.159-1.128.159-1.781.266-1.188.266-2.198-.266-3.267.159 1.069-2.877-.535-5.915-.416-8.794.593-2.559-.059-5.063.237-7.568-.119-4.051-.534-8.315-.891-12.472-.178-2.505-.237-4.958-.712-7.462.296-1.12-.297-2.08.178-3.145-.178-4.051-1.366-7.782-1.306-11.94-.178-.852-.356-1.758-.178-2.664-.12-.96.534-1.759.296-2.666.594-3.038.06-6.342.238-9.488-.238-.319 0-.959-.178-1.385-.476-5.117.119-10.607-.476-15.67.238-.427-.202.133-.084-3.811.476-.374 1.101-.201 1.577-.148 2.672-.533 5.397-.042 7.951-.416 2.019.106 4.334-.213 6.532-.267 5.167-.427 9.205.8 14.133-.48 4.632-.159 9.68-.586 14.194-.853.711.267 1.543-.267 2.373.053 3.86-.532 7.84-.32 11.878-.48.832.427 1.604-.319 2.494.107 1.489-.267 2.973-.108 4.34.052z"/><path d="M87.564 53.621s-.754.123-.754.431c0 .307-.312.369-.312.553 0 .185-.063.738.376.922.438.186 1.442.247 1.568 0 .126-.245.502-.983.251-1.291-.251-.308-.377-.983-.754-.799l-.375.184zM43.823 72.555s-.579.094-.579.331c0 .237-.242.285-.242.426 0 .142-.048.568.29.709.337.142 1.109.19 1.207 0 .096-.189.386-.757.192-.993-.192-.236-.29-.756-.579-.615l-.289.142z" fill="#42b859"/></svg>