<svg xmlns="http://www.w3.org/2000/svg" xmlns:xlink="http://www.w3.org/1999/xlink" viewBox="0 0 283.5 112.853" height="376.177" width="945"><defs><linearGradient id="a"><stop offset="0" stop-color="#00579a"/><stop offset="1" stop-color="#009cdb"/></linearGradient><linearGradient y2="424.786" x2="301.014" y1="330.814" x1="301.114" gradientUnits="userSpaceOnUse" id="b" xlink:href="#a"/></defs><path fill="#fff61b" d="M105.648 8.991l-.601 17.28.9 15.807-.3 9.965-.6 13.45.9 13.77-.6 22.263-6.26.564-41.51 2.356-25.69-1.473-23.913-.295 1.503-18.433L7.4 58.18l.574-14.334-1.176-20.2L8.276 8.991l34.351.295 35.307-.636z"/><path transform="matrix(.87054 0 0 .87054 -205.518 -273.385)" stroke-miterlimit="3.864" fill="url(#b)" stroke="#000" stroke-width=".309" d="M252.745 368.059v-34.553l12.784-.318 17.01-.638 12.135-1.204 31.671-.319 23.113.956-.325 28.5-1.625 23.861 1.301 22.019-.327 18.198-42.904-.318-32.645-1.275h-17.659v-16.922l-.975-25.136z"/><g transform="matrix(.87054 0 0 .87054 -18.46 -281.051)"><defs><path id="c" d="M326.345 331.027l23.113.956-.325 28.5-1.625 23.861 1.301 22.019-.327 18.198-42.904-.318-32.645-1.275h-17.659v-16.922l-.975-25.136-1.554-12.851v-34.553l12.784-.318 17.01-.638 12.135-1.204z"/></defs><clipPath id="d"><use height="100%" width="100%" overflow="visible" xlink:href="#c"/></clipPath></g><path fill="#42b859" d="M22.304 86.629l7.231-8.198 7.514-9.524 8.08-11.248 4.181-2.99 5.313 7.92 4.18 7.09 5.597-6.812L75.53 48.63l12.827-18.276 9.493-12.575V31.74l.285 14.177-.85 14.793.565 12.297V95.38H64.4l-32.602-.554H17.84l.284-2.158z"/><path d="M49.738 97.577c-.63 1.746-.058 3.541-1.03 5.088l-.23.05c.114-1.795-.171-3.391-.171-5.237l-.173-.2c.287-.05 1.604-.448 1.604.3zM50.235 57.969c-.31.076-2.042-.164-2.351-.088l.45-.467c.309.001 1.669.443 1.901.555z"/><path stroke-miterlimit="3.864" fill="none" stroke="#000" stroke-width="1.1440554" d="M59.776 70.07h-.016"/><path d="M49.722 83.425c1.568-2.049 2.875-5.123 4.703-7.3 1.153-1.779 1.807-3.696 3.187-5.424-1.451-1.896-2.71-4.831-4.001-6.804-.345-.873-1.218-1.479-1.198-2.54-.762-1.404-1.726-2.694-2.252-4.136-1.066.228-2.107-.228-3.043-.151-.204.113-.256.264-.235.454.943.266 2.104.266 3.065.342.295.153-.071.341-.043.455-1.333-.227-2.507.342-3.864.38-.285.568.46.455.713.645.683.152 1.383.113 2.125.038-1.033 1.138-2.73.228-4.076.986.274.38.904.265 1.309.493.513-.114.957.113 1.41.228-.024.265-.393.076-.642.265-1.074.303-1.967.341-2.984.455-.13.151-.446.228-.27.417.798.152 1.527.228 2.279.455.116 0 .392-.038.331.19-.464.418-1.171.114-1.726.265-.813 0-1.623-.038-2.237.341.777.38 1.665.418 2.621.532.12-.038.19.038.222.114-.09.151-.105.303-.232.417-.324-.266-.523.227-.837-.152-.974.493-1.956-.19-2.955.569l.247.265 3.244.076c.147.076.056.227.046.341-.827.57-2.219.152-3.144.53-.352.039-.961-.075-1.25.115.008.34.44.265.662.378.848.038 1.896 0 2.703.077.151.455-.483.19-.732.379-.801.304-1.8-.204-2.651.214-.296-.151-.627-.288-.988.241-.099.207.97-.038 1.378.152.801.114 1.515-.076 2.16.077-.274.455-.799.265-1.197.38-1.026.226-1.888.34-2.845.226-.127.114-.095.191-.112.38.591.304 1.324.342 2.117.114.29.227.876-.265 1.138.265.115 0 .285-.152.43-.037-.145.304-.602.227-.852.417-.852 0-1.777-.038-2.652.228-.309 0-.813 0-1.062.19-.056.19.05.304.155.417 1.119.038 2.083.493 3.201.114.222.114-.063.265.001.417-1.217.19-2.751.167-3.897.199l-.104.417c.996.113 2.151.144 3.129.03a.237.237 0 01.046.342c-.752.19-1.568.228-2.276.342-.608-.114-1.669-.52-1.763.152.405.227.799.342 1.295.418 0 0 1.062.227 1.6.265.106.114-.172.464-.292.501-1.15-.113-2.027-.366-3.255-.48-.101.265-.58.256-.534.508.257.152.675.228 1.062.228 0 0 1.573.158 1.685.195.362.265.391.606-.1.683-.588.077-1.26-.19-1.914-.228-.348 0-.658 0-.919-.113-.429.038-.608.303-.932.455.8.152 1.478.343 2.326.38l.141.152c-.155.08-.18.181-.354.206h-1.994c-.236.089-.564.104-.587.353-.024.255.349.207.598.255h.62c.194.12.609.128.518.416l-.195.205c-.662.038-1.133.113-1.788.075-.348 0-1.016.114-.907.608l1.928.076c.2-.076.377.113.363.266-.845.342-1.882.265-2.726.606-.011.114-.06.228.01.303.562.075 1.052.113 1.584.08.173-.191.524.249.272.505-.282.223-.58.213-.58.213-.844-.076-1.76.114-2.58.19-.08.038-.13.15-.14.265.383.038.77.038 1.182.189.433-.075 1.059-.151 1.216.229-.72.265-1.448.189-2.2.379-.26-.114-.624.037-.936.076-.331.228-.721.266-1.038.342.834.19 2.925.378 3.853.378l.098.19c-.657.833-3.215-.151-4.18.228-.324.152-.643-.151-.871.228.612.492 4.264.2 4.855.504l.458.384c-1.185.265-5.604-.244-6.68.515.246.265.84.113 1.129.341.394-.075.87-.19 1.206-.075-.312.872-1.314.417-1.99.607-.474.113-1.104-.19-1.55.455.299.113.897-.076 1.227.113.647.114 1.624 0 2.31.114l-.333.266c-.204.531-.999.343-1.473.455-.296-.152-.588.077-.928 0-.37.227-.905-.265-1.143.227a.378.378 0 00-.015.105l-.156.214s1.544.19 1.657.228c.362.266.391.605-.102.683-.587.076-1.259-.19-1.912-.228-.349 0-.659 0-.92-.114-.429.038-.607.303-.93.455.798.151 1.477.342 2.325.38l.14.152c-.153.08-.18.182-.354.206H22.38c-.236.089-.565.105-.588.353-.024.256.349.207.598.256h.62c.193.12.609.127.516.417l-.194.203c-.661.039-1.133.114-1.787.076-.348 0-1.017.113-.906.607l1.927.076c.2-.076.377.114.362.266-.843.341-1.88.265-2.724.607-.012.114-.06.228.01.303.562.075 1.052.113 1.584.078.172-.19.523.25.272.505-.282.225-.581.213-.581.213-.844-.076-1.76.114-2.58.19-.08.039-.13.153-.14.265.383.038.77.038 1.182.19.433-.076 1.06-.151 1.217.228-.242.196-.497.258-.809.258-1.012 0-1.516-.073-2.527-.073l.287-2.583c.697-1.707 7.35-8.002 8.367-9.342 1.592-1.328 2.157-3.263 3.784-4.553 1.096-1.403 2.051-2.958 2.969-4.514 2.382-1.934 3.355-4.514 5.488-6.676 1.282-1.743 2.849-3.224 3.871-5.083a70.998 70.998 0 004.11-5.159c1.037-.759 2.174-1.327 3.366-.834 1.74 1.29 2.072 3.566 3.23 5.273.7 2.504 3.03 4.097 3.61 6.638.609.754-.04.136 1.915 2.867a64.753 64.753 0 002.595-3.551c1.419-1.783 2.877-3.529 4.369-5.387 1.197-1.953 2.92-3.817 4.382-5.653 2.8-5.045 7.026-9 10.224-13.817 2.26-3.49 4.874-6.91 7.213-10.324 1.42-1.783 3.344-4.418 4.835-6.276 1.537-2.503 4.147-6.027 5.88-8.455.868-.894-.456 3.138-.62 4.611-.333.372-1.83.449-2.058.768-.13.61 2.44 1.097 2.384 1.153.131 1.12-2.579.224-2.809 1.089-.197.545 1.346.87 2.157.833.604-.266.42.34.235.49-1.945.57-1.152-.466-2.912.71.626.872 2.12.569 3.041.455.439.228 1.032-.267 1.363.15l-.632.531c-.447.342-1.2 0-1.805.266-.192.039-.437-.227-.54 0-.97-.038-1.964.19-2.8.493-.072.114-.3.19-.179.303.872.38 1.94.114 2.79.077.335.492 1.186-.266 1.335.378-2.107.417-4.234.417-6.083 1.366.88.57 1.87.266 2.926.455.54 0 1.095.229 1.662 0 .156 0 .05.191.094.304-1.726.303-3.653.456-5.427.569-.226.114-.566.266-.593.492 1.341.532 2.82.684 4.243.532-.018.417-.56.417-.86.569-.822-.19-1.77.19-2.622.19-.664-.113-1.474-.077-1.87.492.364.303.76.493 1.191.607.698 0 1.28.039 1.971-.037.29.342 1.423-.19 1.152.569-1.772.151-3.519.038-5.162.455.009.152-.252.38.06.417 1.124.038 2.388.53 3.457.266.273.037.473.152.561.38-1.393.758-3.21 0-4.742.303-.345.076-.844.152-.82.607.318.19.752.341 1.18.417 1.094.19 2.32-.039 3.347.341-.13.494-.783-.19-.754.417-1.123-.038-2.282 0-3.278.19-.778-.038-1.879-.418-2.305.341-.02.38.4.227.598.342l2.788.038c.242.19.54-.038.852 0l.02.38c-1.522.492-3.556.076-4.993.72a.326.326 0 00-.379.19c.261.53.99.417 1.572.455 1.114-.152 2.392-.152 3.396-.19-.177.342-.782.608-1.323.646l-.07.113c-1.66.114-3.681-.076-5.197.569-.03.15.167.228.25.342l3.493.19c.251.379-.14.265-.284.493-.542 0-1.186.266-1.627-.038-.763.228-1.63-.076-2.357.076-.11.113-.31-.038-.38.151.172.342.635.303.984.303l2.281-.037c.157.037.164.19.172.342-.975.606-2.35.227-3.424.38-.36-.191-.622-.04-.922.151.997.608 2.454.341 3.658.417-.122.645-.762.227-1.133.53-1.045 0-2.129 0-3.207.115l-.186.15c.39.798 1.336.418 1.924.532.345-.039.918-.19 1.278.037-.163.608-1.068.305-1.563.456-.816-.038-1.778.038-2.58.265l-.179.265c.688.607 1.793.228 2.687.343.073-.077.235.037.24.151.201.152.458-.114.624.113.09.228-.175.342-.369.342-1.09-.113-1.994.342-3.059-.038-.37.303-1.24-.038-1.245.645 1.42.493 2.914.19 4.348.265.163.153-.021.342-.137.342-.523-.379-.553.53-1 .076-1.156.115-2.22.493-3.355.266-.307.076-.618.038-.88.189.416.57 1.365.228 1.948.305.392.075.868-.456 1.238-.038.236.075.698.038.978.227.009.153-.14.266-.253.342-.2-.114-.512-.152-.574.114-.947-.343-1.805.265-2.785.037-.58 0-1.284-.15-1.607.38l.243.19 3.21-.038c.16.076.205.227.095.342-.894.682-1.778.037-2.765.417-.394-.152-.845.114-1.268.19-.15.076-.335.228-.326.417l.16.113c1.092.152 2.396-.075 3.563.04.204.226-.1.34-.052.53-1.297.342-2.967-.322-4.151-.019l-.797.825c1.125.075 2.082-.436 4.282.047-.109.776-1.303.565-1.647.679-.886.076-1.952.128-2.799.242-.114.326.27.475.503.586 1.432 0 1.639-.098 3.107-.136.356.152-.03.269.059.496-.8.265-.645-.246-1.39.323-1.02-.227-1.886.227-2.926.304-.226.114-.457.151-.64.341.244.228.227.645.686.57 1.156-.114 2.594 0 3.704-.228.087.19.468.075.368.38-.326.417-.738-.039-1.19.19-1.583.075-3.121.265-4.596.91-.115.038-.182.227-.175.38.794.38 1.71.113 2.52.075.605-.265 1.513.076 2.081-.152.087.152.17.304-.016.456-1.944.568-4.6.113-6.357 1.29.624.87 2.118.567 3.041.453.437.229 1.032-.264 1.363.153l-.632.53c-.447.341-1.2 0-1.806.265-.192.039-.437-.227-.542 0-.968-.037-1.963.19-2.798.494-.073.113-.302.19-.178.303.87.38 1.94.114 2.79.076.334.493 1.185-.265 1.335.38-2.108.417-4.235.417-6.084 1.365.88.57 1.871.265 2.926.454.54 0 1.094.228 1.663 0 .155 0 .048.19.093.304-1.725.303-3.653.455-5.427.568-.226.114-.567.266-.594.493 1.343.531 2.82.683 4.245.531-.019.417-.56.417-.862.569-.821-.19-1.769.19-2.62.19-.665-.114-1.475-.076-1.872.492a3.01 3.01 0 001.191.607c.698 0 1.28.038 1.973-.038.288.342 1.422-.19 1.152.569-1.773.152-3.519.038-5.163.455.009.152-.251.38.06.417 1.124.038 2.343.42 3.412.154.273.039 2.313-.01 2.401.219-.222 1.526-5.007.271-6.538.575-.345.076-.844.152-.82.607.32.19.752.341 1.181.417 1.093.19-.265.42 3.369.13 1.372-.193 2.94-.45 3.723.064-2.224 1.264-6.782.565-7.779.754-.776-.037-1.878-.416-2.304.342-.02.38.4.228.598.342l2.788.037c.24.19.54-.037.85 0l.02.38c-1.52.494-3.555.076-4.992.721a.326.326 0 00-.377.19c.259.53.99.417 1.57.454 1.114-.151 2.392-.151 3.396-.19-.175.343-.78.607-1.322.646l-.071.113c-1.659.114-3.68-.077-5.196.569-.031.15.166.228.25.341l3.492.19c.252.38-.141.265-.284.493-.541 0-1.187.265-1.627-.038-.762.227-1.629-.077-2.357.076-.11.114-.31-.038-.38.151.173.343.636.304.983.304l2.282-.038c.157.038.165.19.173.342-.976.606-2.35.227-3.426.38-.358-.19-.622-.039-.921.151.998.607 1.409.484 2.613.56-.122.645-.763.227-1.136.53-1.043 0-1.08-.142-2.158-.028l-.186.152c.39.796.303.37.889.485.345-.038.4-.182.762.046-.164.606-.552.295-1.047.448-.814-.038-1.404-.096-1.544.31-.097.281 1.136.25.695.618 0 0-.783.384-.94.696-.423.462-1.335.742-1.925.557z"/><path fill="#fff61b" d="M24.16 22.248l2.875-1.558.68.593-.15 1.114-1.664 5.507V30l.377 2.077 1.46 2.256.436 1.24 1.184 1.607 2.312 2.724 2.214 1.282 4.636.073 3.122-1.207 1.513-.593-.53 2.245-4.409 2.837-7 .148-6.45-2.985-2.896-4.767-1.211-2.839 1.06-7.9 1.059-1.335z"/><path d="M42.522 40.279c.049.094.146.048.196.048-.098.192-.343.289-.636.239.048-.287.391-.383.636-.48zM26.725 22.453c-.154.255-1.033-.138-1.06-.078-.127.294.986.384.986.384.028.243-.974.219-.974.315.147.095.755.147.95.147l-.008.372c-.49 0-1.287.08-1.385-.449-.098 0-.15-.057-.15.088-.098.289.1.2.052.44l.392.241 1.163.014c.097.512-.349.307-.153.355-.343.192-1.047.036-1.144.036-.098 0-.847-.188-.847-.091 0 .096.411.414.56.414 0 0 .996-.026.996.312-.121.318.072-.257-.07.143-.295.096-1.558-.171-1.602.168.49-.145.986.377 1.476.233l-.261.544-.826-.09c0-.095-.05-.192-.147-.144-.099 0-.246-.048-.246.096.099.289.976.59 1.27.59 0 0-.199.236-.051.38-.245-.144-1.351.033-1.351-.4-.05 0-.245-.047-.196.096 0 .289 1.27.607 1.416.752-.148.096-2.375-.31-2.277-.023-.146.358 2.381.12 2.147.695a9.645 9.645 0 01-1.64.279c-.12.316 1.236.154 1.775.154.016.344-.056.317-.07.527l-2.312.176c-.304.313 2.443.368 2.443.368l.039.36c-.441-.143-2.369.013-2.81-.037.05.24 1.381.328 1.578.375.43.09.948-.042 1.194.007l.243.265c-.49-.096-2.263.044-2.403.252.048.192 2.04.068 2.187.115 0 0-.033.123.038.328-.343-.096-1.858.024-1.688.204.03.151 1.577.136 1.577.136.245.095.186.27.186.27-.246.048-1.673-.003-1.658.418l1.74.103c.812.27.384.414.384.414.036.023-1.808-.293-1.602.136.14.292 1.835.205 1.984.205.041.051.378.173.348.204.298.175-1.707.016-1.566.41.043.121 2.002.32 1.775.511-.342.193.35-.08.007.16-.147 0-1.078-.095-1.111.043l.099.15c.294.096.837.2 1.18.296l.208.434c-.54.047-1.15-.024-1.64.074l-.29.097c-.092.15.704.117.9.117.197.24.782.047 1.076.093.052.218.117.33-.047.356-.147.192-1.193-.036-.996.133l-.409.048c-.367.076-.498-.021-.71.002-.048.048-.775-.091-.821.185-.049.192 1.121.163 1.268.115 0 0 2.475-.311 2.507.12.007.077-.692.284-.855.043-.825.067-1.603.256-1.747.351l-.07.246c.93-.048.91.09 2.184-.022.364-.039.767-.208 1.062-.112.588.32-.182.377-.182.377.257.161-.985-.102-.95.4.197.097 1.763.14 1.763.14l-.405.184c-.636.289-1.052-.076-1.035.228l.229.176c.86-.237.333.253 1.085.06.343.145.18.036.424-.014l.189-.073c.678.247.215.543.362.543 0 0-2.048.022-1.857.133.244.24 1.75.305 2.24.208-.147.48.417.308.417.308-.587.192-1.797.246-2.338.149 0 .096.313.367.46.32l1.168.147s1.064-.137 1.554.15c-.392.385-1.77.139-2.212.38 0 0-.51-.002-.454.161.062.181 2.35.003 2.35.003l1.216.07c-.049.049.572-.112.703.305-.049.143-.221-.078-.692.106-.54-.07-1.3.032-1.15.322.587.097 2.373-.115 2.373-.115s.977-.02 1.397.039c.343.049-.882.192-.882.192-.245.048-1.071.042-1.267.138.294.48 3.026-.223 3.123.16.197 0-.661-.092-.54.07l.669.06.88-.148c.44.048.55.096.796-.24.441.144 1.755-.046 1.853-.526.098 0 .245.048.294-.049.098-.144.44-.192.54-.384.244.096.294-.192.44-.24h.196c-.098.192.205.118.352.118l.334-.021c0 .527-.212.231-.98.527-.148 0-.294-.048-.391.05.048.239 1.1-.069.701.438 0 0-.338.14-.68.092-.1 0-.871-.115-.917.139-.047.207 1.339.16 1.339.276 0 .53-1.385.1-1.385.1l-.84.17c-.294.049-.701-.194-.75.19l2.2.092c-.246.049-.165.046-.165.046-.657.507-2.725.185-2.536.46.097.241.939-.014.939.324-.442.432-.358.17-.358.17 0 .145-.735-.095-.784.24-.392.145-.883.096-1.373.096l-.05.096c-1.714-.048-3.626.193-5.047-.192H30.6v-.145c-.735.096-.883-.48-1.568-.432-.344-.096-.441-.577-.98-.433-.295-.192-.54-.336-.834-.434l-1.174-1.242c-.539-.24-1.078-.768-1.372-1.297-.245-.288-.736-.384-.687-.864-.44-.05-.146-.577-.587-.577a3.031 3.031 0 00-.54-1.2l-.881-1.154c.097-.626-.196-.913-.196-1.538h-.098c-.246-1.105-.098-2.45-.098-3.652.196-.432.049-1.105.098-1.682h.098c.048-.527.146-.96.391-1.345.148-.528.05-1.25.491-1.585v-.24c.293-.096.147-.48.44-.624v-.385c.196-.145.295-.433.54-.576.05-.673.735-.721.735-1.49.687-.24.687-1.105 1.324-1.394.06.195 1.021.49 1.021.49zm.602-1.01c-.735-.24-.538 1.105-1.274.384.441-.144.736-.96 1.274-.384zm.05-1.681c.048.432-.49.144-.735.24v.096c-.099.096-.246.048-.392.048-.147.433-.686.337-.883.625-.146.096-.196.288-.392.192-.244.24-.636.24-.734.577a1.499 1.499 0 01-.393.384c-.293.049.05.48-.293.433-.246.48-.686.96-.833 1.489-.295.096-.246.383-.393.577.05.528-.539.528-.293 1.152-.589.384-.54 1.202-.785 1.923h-.097v.625c-.197.288-.148.816-.442 1.008-.245.913 0 2.114-.146 3.075h-.147v2.259h.147c0 1.008.49 1.585.589 2.546.146.192.343.384.293.77.736.288.833 1.105 1.079 1.825.244.049.293.337.44.433.147.336.392.48.441.816.49.096.246.817.687.961.588 1.01 1.715 1.346 2.696 1.971.245.24.54.48.882.624.246.289.736.24.98.482h.196c.343.144.785.192 1.03.384.833-.096 1.323.239 2.157.192v.096c.195.048.587-.096.686.144 1.617-.048 3.382.096 4.9-.144v-.096c.49.048.735-.288 1.275-.192v-.096c1.128 0 1.667-.625 2.402-1.057.245-.336.735-.433.93-.769.54-.48.785-1.152 1.03-1.873.196-.337.294-.77.343-1.297h.098v-.961l-.239-.15c-.098-.049-.398.006-.398.006-.294 0-.539.336-.735.433-.588.288-1.03.624-1.667.817-.196.192-.353.284-.745.189 0 .384-.676.148-.725.387-1.03.097-2.205.144-3.333.144l-.098-.144c-.785.144-1.323-.192-2.108-.143 0 0-.449-.18-.596-.277 0 0-.665-.264-.881-.577-1.18-.413-2.973-4.21-3.169-4.066-.197-.096-2.215-4.355-2.118-4.787h-.097c-.197-1.057-.393-2.066-.295-3.267.098-.337.196-.721.392-.962.05-.144-.097-.433.147-.48-.147-.817.196-1.153.343-1.826.197-.145.197-.336.343-.577-.196-.528.441-.433.393-.865.244-.192.244-.672.49-.912v-.914h-.099c-.147-.192-.048-.48-.097-.672-.346-.29-.59-.627-1.032-.819zM83.214 51.897c.164-.11.937-.83.992 0-.054.222.11.332.22.553.386-.166.937-.498 1.378-.33.495.496-.826 1.16.165 1.491.385-.332.605-.941 1.267-.663.275.552.054 1.16.22 1.658.552.11.386-1.16 1.157-.497.11.055.221.165.33.11 0 .276-.44.498-.384.885.495.94 1.156-.277 1.707.442-.055.387-.66.774-.22 1.215.164-.44.66-.33.992-.22-.056.276-.22.884.11 1.105.275-.33.606-.276.993-.33.164.607.33 1.326-.111 1.768.386-.11.44-.83 1.047-.775 1.102.554-.385 1.162.165 1.88.274-.276.495-.387.495-.718.275-.11.771-.11.771.276 0 .553-.495.775-.66 1.327-.276-.11-.332.221-.497.33 0 .886-1.102.499-1.597.776-4.847.442-9.587.165-13.773-2.378-.221-.552-.385-.996-.33-1.603.33-.056.66-.498.99-.11 2.976 2.653 7.273 2.875 11.24 2.653v-.331c-1.709-1.493-2.974-3.207-4.738-4.48-.11.94-.825 1.493-1.487 2.158-.825.054-1.82.22-2.534-.443-.552-.774-.937-1.604-.827-2.653-.11-.498 1.103-1.162 0-1.382-.495-.443.607-.774-.054-1.271.054-.387.33-1.05.606-1.05.275.165.22.884.716.552.273-.387.495-.608.716-.996.44.222.384.996.935 1.05zm.276 3.705c-.221.277-.221.608-.552.83-.33-.332-1.322-.11-1.047-.94.056-.387.331-.885.772-.885.276.332.936.441.827.995zM44.714 68.845c.121-.083.686-.608.726 0-.04.162.081.243.163.405.283-.122.686-.364 1.009-.243.363.364-.605.852.12 1.095.284-.243.445-.69.93-.487.2.405.04.85.162 1.215.404.082.283-.851.848-.364.08.04.16.121.242.08 0 .203-.324.365-.283.65.362.688.847-.203 1.251.324-.04.283-.484.566-.162.89.122-.324.485-.243.727-.162-.04.202-.162.648.082.811.202-.243.444-.203.726-.243.12.446.242.972-.08 1.295.282-.08.323-.606.766-.566.808.405-.282.851.12 1.378.204-.203.365-.284.365-.528.202-.081.565-.081.565.202 0 .406-.363.568-.485.973-.201-.081-.241.162-.363.243 0 .649-.808.365-1.171.568-3.554.325-7.025.122-10.094-1.742-.162-.406-.283-.73-.242-1.175.242-.041.485-.364.726-.081 2.18 1.944 5.33 2.106 8.237 1.944v-.243c-1.252-1.094-2.18-2.35-3.472-3.282-.081.69-.606 1.094-1.09 1.58-.605.04-1.332.162-1.858-.324-.403-.568-.685-1.175-.605-1.945-.08-.364.808-.85 0-1.013-.363-.325.444-.568-.04-.932.04-.284.241-.77.443-.77.202.122.162.648.525.405.201-.283.363-.446.525-.729.323.163.283.73.687.77zm.202 2.716c-.162.202-.162.445-.404.607-.242-.243-.969-.082-.767-.688.041-.284.242-.649.565-.649.202.242.687.323.606.73z"/><path d="M77.1 7.41c-4.135.37-6.89.564-10.975 1.215l-.104-.093c-2.326.51-3.526-.974-5.645-.557-3.671-.278-7.898.743-11.517.789-.62 0-1.137-.279-1.706-.185-1.189-.325-2.275-.047-3.464-.232-.31.092-.517.092-.723 0-2.947-.093-5.273.232-7.962.138-.362 0-.724-.046-1.034.094-1.397-.326-2.896.138-4.498.046-.363 0-.776-.186-1.086-.046-2.533-.094-5.17 0-7.496-.094-.93.14-1.758-.046-2.637.14-2.688-.093-5.635-.401-8.22-.449-1.19-.232-1.81.465-2.895-.185-.466.14-.983.464-1.138.882.104.417-.103 1.794.26 2.118.154.928.257 1.995.257 2.876.467 2.182-.258.514-.258 6.036-.414 4.362.569 8.492.104 12.992.827 3.572-.051 7.238.517 10.765-.362 2.598.259 5.986-.568 8.724.362 1.53.568 3.2.568 4.778-.155 3.11.362 6.217.362 9.14-.156 3.249 1.242 6.45.982 9.792-.362 2.783.466 5.614 0 8.352-.206.557.207 1.393-.103 1.902.413.696-.31 1.3 0 2.042-.517 3.99-.776 7.61-.982 11.646-.104 1.16.723 2.273 0 3.388.206.51.723.881 1.24 1.02.776-.37 1.343.14 2.12-.092.155.139.26.047.414 0 3.308-.093 6.462-.556 9.563-.464 2.069-.09 3.93.047 6.049-.232 6.255.232 12.408 1.345 18.61 1.394 2.327 0 4.395.23 6.773.23 1.55.14 3.36.186 4.86.373 2.48 0 4.808-.279 7.236-.326 3.723.232 7.186-.602 10.805-.558 1.603-.277 3.464-.09 5.273-.323.518.417.777-.278 1.344-.047 1.913.37 3.827-.464 5.584-.187.155-.324.465-.046.724-.046 2.12-.187 4.29-.464 6.617-.603l.103.092c1.448-.277 3.257-.324 4.913-.37.567 0 1.084.046 1.704-.047.57-.187 1.087.091 1.603-.093.26 0 .569-.233.777 0l4.135-.836.414-.417c-.206-.325-.516-.048-.724-.278-.465-.928-.103-1.856-.414-2.924-.672-4.269-.052-8.63-.052-12.945.673-2.135-.154-4.64 0-6.729-.258-1.717 1.138-3.248-.258-4.64.258-1.855-.156-3.665-.104-5.476-.621-5.986-.206-12.62.362-18.374.88-3.85.621-7.934-.052-11.6a82.803 82.803 0 01-1.034-9.326c.155-4.176-.025-9.126-.077-13.488 0-.974-.195-1.716.065-2.69.207-3.572 0-2.049 0-2.049-.052-.464.735-2.61.322-2.843-.362-.139-.828-.51-1.19-.139l-4.032-.093c-4.912-.556-10.34-.51-15.458-.65-.93.14-1.81-.046-2.688.14-1.292-.093-4.119-.333-5.567-.38zm23.751 86.92c.622-.047 1.13.097 1.695-.146.396.099 1.187.243 1.358.633-1.073.389-2.035.096-3.167 0-.282.146-.62-.146-1.016-.097l.112-.632c.283.437.622.096 1.018.243zm2.544-1.803c.168.244.678.195.735.535-1.47.145-3.11.05-4.408-.096.055-.098-.058-.147-.114-.195.736-.389 1.47.097 2.148-.34.565.047 1.243.146 1.639.096zm-1.018-1.634c.508-.39 1.186.194 1.696-.098v.195c-1.356.34-2.996-.195-4.24.486a.77.77 0 01-.112-.777c.96.34 1.64-.146 2.656.194zm1.641-1.733c-1.468.39-2.939.244-4.408.584-.057-.098-.17-.195-.113-.34.395-.292 1.011-.29 1.407-.631 1.129.099 3.132-.31 3.114.387zm-.342-2.003c-1.187.63-2.544.145-3.9.63l-.057-.873c1.244.582 2.544-.195 3.957.243zm.052-1.772c-.277 1.09-3.443.236-4.404.527.112-.291-.227-.583.055-.826 1.19.194 3.331-.042 4.35.299zm.176-2.031c0 .146.226.292.056.438-1.13.242-2.432.048-3.788.34-.565-.147-.735-.292-1.13-.049l.112-.729 2.431.146c.736-.389 1.414 0 2.319-.146zm-3.505-2.426l4.411.85c.167 1.433-4.638-.17-5.317-.412l-.168-.584c.396-.145.679.437 1.074.146zm-1.02-1.942c1.64.145 3.393-.195 4.864.485-.17.389-.454.243-.85.195-1.3.389-2.712-.195-4.125.05l-.34-.972c.284-.049.284.096.452.242zm-.167-2.324c.281-.437.792.145 1.13-.049.51-.146 1.018.292 1.527.05.508.34 1.412 0 2.147.193.34-.096.227.147.34.292l-.113.195c-1.808-.195-3.618.242-5.37.436 0 0 .056-1.213.339-1.117zm4.767-2.549l.062.747c-1.582.145-3.787.292-5.087.68l-.057-.972c1.696.536 3.501-.407 5.082-.455zm-2.564-3.42l2.09.075c-.056 1.166-2.824.072-3.501.314-.17-.438-.511.048-.792.048-.17.243-.17.584.281.535 1.131.29 3.748-.007 4.124 1.495-1.244-.292-3.39-.67-4.689-.96l-.395.29.056-2.088c.904.534 1.923-.097 2.826.291zm-2.543-2.338c.621-.194 4.317.121 5.053.074-.197 2.107-4.6.17-5.279.898l-.112-1.165zM103 67.012c-.565.195-1.414.098-1.922.05-.678.145-1.923-.146-2.6.145-.115-1.07 1.527-.292 2.204-.681.792.244 1.865-.097 2.318.486zm.791-4.792c-.34.777-1.073 1.118-2.091 1.165a13.687 13.687 0 00-2.826 0c-.17.147-.452.34-.34.632.17.097.453.291.622.097.395.145.85-.049 1.188.243.112 0 .057-.097.057-.145 1.072.242 2.146.097 3.22.632v.145c-1.807.437-3.503-.098-5.258.582-.112-.195-.055-.29 0-.485v-2.624c1.642.097 3.732-.096 5.428-.242zm-2.487-1.529c.903-.145 1.581-.097 2.43.244v.145c-1.695.098-3.729.39-5.2-.048 0-.34.508-.292.791-.486.623.145 1.3 0 1.979.145zm1.809-1.635c.282.098.791-.533.96 0-.621.39-1.355.292-1.978.292l-3.221.244c.508-.924 1.865-.39 2.883-.633.395.05 1.13-.34 1.356.097zm.62-1.948c-.507.729-1.639.34-2.486.583-.622.098-1.242.146-1.866.195-.394-1.02 1.132-.438 1.64-.778.622.243 1.47-.195 2.205.146.112-.097.338-.146.508-.146zm1.019-1.732c-.395.583-1.526.583-2.092.534-.96.098-2.147.098-3.109.244v-1.117c1.583.048 3.845-.632 5.201.34zm.396-1.918c-1.584.438-3.449.194-5.143.438-.057-.292-.17-.729.055-.924 1.64.34 3.562 0 5.089.486zm.17-2.46c-.114.34.339.632 0 .875-1.696.243-3.504.097-5.257.146v-.779c1.752.292 3.448-.096 5.257-.241zm-.678-1.634c-1.47.34-3.11.533-4.58.68-.17-.34-.113-.632-.055-1.02.62.145 1.468-.292 2.089-.05.96-.097 1.81-.34 2.713-.097zm.45-2.954c-.225.874-1.469.582-2.147.971l-.225-.145c-.85.292-1.867.292-2.713.582-.283-.534.339-1.117 0-1.602 1.242-.146 2.826.194 4.239-.243.34-.05.791.146.847.437zm-.055-2.274c-1.47 1.166-3.392.583-5.202.874-.057-.242 0-.729-.112-1.02.847-.098 1.582-.389 2.373-.146.961.097 1.754-.389 2.601-.097zm-.565-2.442c-.169.437-.906.34-1.357.534-1.075-.097-2.376.632-3.45.437 0-.146.114-.242.058-.389.678-.145 1.3-.34 2.148-.242l.169-.146c.905.098 1.64-.486 2.432-.194zm-.68-2.3c.227.631-.563.631-1.016.778l-3.166.486c-.282-.243.056-.486-.057-.875 1.357-.29 2.657-.437 4.126-.388h.114zm.34-1.995c.17.486-.566.534-.904.728-1.3.39-2.544.292-3.9.292l-.114-.632c1.583-.34 2.995-.194 4.466-.68.17.098.509.001.452.292zm-.509-2.265c.169.388-.395.437-.621.582-1.131.243-2.6.195-3.788.437-.283-.242-.057-.679-.227-.971 1.414-.049 2.996-.437 4.409-.486zm.057-2.704c-1.356.73-2.826.971-4.465 1.312-.226-.05-.226-.34-.226-.583 1.526-.389 3.052-.196 4.408-.826zm-.282-2.115c-1.244.729-2.713 1.215-4.466 1.02.057-.193-.112-.34-.056-.533 1.413-.05 2.6-.34 4.012-.631.17-.05.396-.001.51.144zm.282-2.625c-.226.487-1.073.583-1.582.973l-3.222.534c-.114-.146-.114-.583 0-.827.678-.34 1.64 0 2.431-.292.903.1 1.582-.678 2.373-.388zm-.226-2.185c-.905.922-2.204.68-3.392 1.117l-1.187.05c-.564-.73.565-.438.85-.73.225.146.62-.242.902 0 .737-.242 1.979-.485 2.827-.437zm-.17-2.078c-1.299.826-2.995.971-4.464 1.118-.396-.68.62-.487.904-.778 1.13-.05 2.373-.583 3.56-.34zm-.339-2.127c-1.017.73-2.43 1.264-3.956 1.07-.227-.632.621-.632 1.018-.826 1.016.388 1.808-.827 2.938-.244zm-.168-2.237c-.736.583-1.978.535-2.884.972-.226-.195-.396.195-.621.145v-.583c.282.195.395-.243.621-.243.961-.097 1.979-.145 2.884-.29zm.507-1.744c-.563.777-1.79.678-2.58 1.017-.396-.048-1.094-.094-1.32-.337 1.243-.39 2.091-.146 3.165-.778zM57.274 97.328c-.116 1.545 0 2.793 0 4.24l-.517.847c-.229-.348-.115-1.446-.629-2.045.229-.848-.23-1.945.114-2.594l-.057-.498c.4.05.744.1 1.088.05zm41.114-.1c-.173 1.447.343 2.994-.173 4.19-.686.348-.572-.549-.744-.747-.114-1.099-.572-2.246-.4-3.392.457-.2.914.15 1.317-.051zm-38.585.05c.172.997.115 1.796 0 2.893-.457.199-.229.649-.457.948.286.449-.23.699-.344 1.197l-.173-.2c-.228-1.746-.456-3.092-.056-4.888zm-8.472-.413c-.229.998-.743 1.895-.344 2.894-.457.747-.896 1.908-1.354 2.657-.172-1.695-.573-3.542-.4-5.137.342.099 1.64-.515 2.098-.414zm44.227.363l.114.15c.057 1.496.287 2.993-.457 4.14-.516.2-.629-.249-.745-.598 0-1.247-.285-2.794-.456-3.84.513.199 1.028.148 1.544.148zm-2.827-.05c-.344 1.198.057 2.793-.344 4.19l-.23.15c-.458-1.197-.514-2.893-.458-4.34.402.2.573-.2 1.032 0zm-16.278-.099c.344.699-.114 1.496.057 2.294-.23.748.17 1.498-.402 2.096-.572-1.298-.629-2.945-1.087-4.39.516.15.917.1 1.432 0zm-13.636.15c-.628.697.287 1.446-.286 2.144-.23 1.099-.114 2.295-.342 3.342l-.459.05c-.457-.747.23-1.296-.114-2.144-.228-.847-.114-1.696-.058-2.494-.343-.25-.458-.747-.285-1.047.629.248.916-.051 1.544.148zm-8.07 2.394l-.57 2.544c-.917-1.397-.46-3.442-.689-4.939.4.25.802-.298 1.26 0 .227.798-.116 1.546 0 2.395zm35.653-.05c-.457.2.057.598-.172.898-.4.449 0 1.246-.916 1.246-.171-1.696-.515-3.042-.458-4.539.516-.15.916-.05 1.432-.099zm-2.834-2.046c-.515 1.196.23 2.992-.4 4.34-.343.149-.86.149-1.031-.2.286-1.646.229-3.093.63-4.638.459-.1.744.15.801.498zm-2.747-.448c.172 1.496-.344 2.643-.344 4.09-.286.2-.057.798-.63.698-.114-1.396-.63-2.694-.344-4.04.114-.3-.343-.45-.056-.748zm-5.923 0c.115 1.545-.285 2.993.058 4.439l-.171.499c-.573-1.647-.286-3.193-.917-4.79.23-.397.745 0 1.03-.148zm-7.639 0c-.056 1.645-1.03 3.29-.744 4.987-.629-.849-.23-2.095-.344-3.093.115-.648-.63-1.396-.17-1.944zm-2.69 0c-.116 1.247-.631 2.343-.631 3.592-.287.15.057.348 0 .547l-.23.949c-.688-1.496-.401-3.243-.858-4.839-.23 0-.687-.3-.974.05.057 1.496-.056 2.644-.686 4.042.344.298-.057.647-.116.946-.515-1.346.172-3.341-.456-4.788-.173-.05-.345-.299-.517-.349.63-.2 1.832-.2 2.691 0 .63-.15 1.089-.25 1.776-.15zm-21.714.1c-.687 1.645.287 3.34-.63 4.987-.63-1.346-.114-3.142-.801-4.589l-.515-.399c.572-.2 1.317.05 1.946 0zm35.215-.1c-.115 1.695.057 3.492-.687 4.938-1.144-1.397-.687-3.143-1.144-4.839.514-.398 1.201.05 1.831-.099zm-8.328 0c-.343.548-.229.648-.056 1.196.229 1.498-.858 2.296-.517 3.742-.342-.947 0-1.896-.286-2.943-.343-.65.114-1.347-.343-1.896.287-.2.86-.3 1.202-.099zm-30.115 0c-.63 1.496-.057 3.44-.744 4.788-.515-1.296-.173-3.192-.287-4.589-.114-.1-.343-.25-.057-.349.343.199.686.05 1.088.15zm-2.507-.15c-.171 1.545-.63 2.943-.458 4.49-.286.298-.115.548-.515.847-.4-.25-.115-.648-.287-1.048-.344-1.197-.229-2.943-.344-4.04l.23-.3c.4.1.859 0 1.374.051zm-2.884-.05c-.688.549-.115 1.645-.573 2.194.058.898-.058 1.996-.286 2.944h-.114c-.402-1.944-.058-3.342-.574-5.138.459-.3 1.032 0 1.547 0zm-2.828 0c0 .897 0 1.844-.285 2.543-.172 1.048-.4 1.795-.858 2.694h-.46c.631-1.646 0-3.392.287-5.088 0-.099-.229-.249 0-.348.516-.05.916.049 1.316.199zm-2.884-.25c-.4.4 0 1.048-.345 1.496-.342 1.198.63 2.546-.8 3.343l-.344-.3c-.287-1.496-.343-2.893-.46-4.44.518-.248 1.204.102 1.95-.098zm-8.264.55c-.458.049 0 .249-.171.398-.173 1.197-.288 2.394-1.031 3.292-.63-1.396.171-3.042-.172-4.44.4.1.858-.248 1.43-.05zm5.02.746c-.4 1.099-.057 2.245-.572 3.292-.173-1.496-.744-3.292-.516-4.937 1.318-.05 1.089.799 1.089 1.645zm-2.422-1.595c-.228 1.446-.4 3.292-.343 4.639-.802-1.297-.4-3.292-.917-4.69.344.25.802-.198 1.26.051zm-5.39 0c.287 1.497-.572 2.993-.572 4.49-.173.149-.23.397-.458.547l-.343-.599c-.287-1.496.343-3.192-.573-4.488.687.05 1.26.1 1.946.05zm-3.229 0c-.286.698.173 1.545-.286 2.244-.115.848-.285 1.648-.687 2.345-.515-1.147.114-3.193-.286-4.54.345-.198.86-.148 1.26-.048zm-3.012-.056c-1.484-.146-2.915.492-4.398.1-.102-.296-.666-.1-.461-.59.666-.296 1.38-.393 2.046-.59.153.197.409-.099.665 0 1.125-.148 1.892-.148 2.967-.491.05.688.256 1.72-.82 1.571zm1.024-3.416c-.563-.197-1.074.245-1.433-.392-.46.244-2.057.954-2.67 1.051-.87-.049-.808-.856-1.626-1.2.87-.344 1.687.196 2.66 0 .92-.393 2.045-.246 2.966-.688zm-.308-3.034c-.972.688-1.892.098-2.915.54l-.154-.146c-.665.197-1.38.344-2.199.097.564-.392 1.534-.294 2.303-.54.92-.147 2.148-.147 2.966-.885v.934zm0-2.526c-.256-.442-.87-.097-1.227-.147-1.433.393-2.966.688-4.348.49-.102-.245-.051-.392-.051-.737 1.84-.49 3.529.05 5.267-.44l.154.097.204-.295c.257.296.104.738.001 1.032zm.205-2.364a10.923 10.923 0 00-3.99.148c-.613-.246-1.175.097-1.636-.295 1.074-.738 2.865-.541 4.348-.589.308-.148 1.074-.148 1.33-.098zm-2.697-5.181c.92-.148 1.878.41 2.748.46.256.638.155 1.688.155 2.277-.359.491-.87.147-1.33.294-1.637 0-3.222 0-4.859.099-.103-.099-.253-.553-.2-.75 1.994-.196 3.985.454 5.98-.331.102-.197.306-.951.203-1.147-1.995-.392-3.887.245-5.932-.147 0-.245.562-.491.97-.442.717.245 1.599-.559 2.265-.313zm2.748-1.528c.103.196-.153.196-.256.294-1.687-.982-3.682-.147-5.727-.49l-.154-.148c1.483-.885 3.63-.295 5.37-.689.92-.342.511.59.767 1.033zm-.41-3.776c.308.492-.152.934.154 1.425-1.892.148-3.477 0-5.37-.196l-.46-.345c1.482-.786 3.119-.834 4.704-.933zm-.306-3.119c.204.441.052.884.153 1.375-.205.246-.716.294-.971.197l-.154-.197c-.255.295-.767.197-1.074.393-1.125-.294-2.813.737-3.324-.54l.562-.541c1.38-.442 3.018-.099 4.349-.786.1.148.305.05.46.1zm-.154-1.285c-.358-.147-.613-.639-1.073-.245-.358-.345-.512.245-.87.146-1.28.099-2.456.05-3.734-.294 1.84-.197 3.682-.393 5.524-.54l.102-.197c-.051.344.409.786.051 1.13zm-2.455-3.347l2.303.147c.05.148.102.296.102.491-1.688.099-3.58.197-5.217.394-.205-.147-.613-.246-.666-.54.563-.639 1.382-.296 2.148-.54h1.33zm2.25-1.775c0 .147.205.245.053.392-.511.099-.87.099-1.433-.098-.357.59-.818-.344-1.278.147l-.103-.147-2.864.245c-.103-.098-.051-.245-.051-.392 1.79-.737 3.835.148 5.677-.147zm0-2.078l.053.738c-1.842-.198-3.58-.099-5.423-.295 1.688-.835 3.53-.443 5.37-.443zm-.101-1.375c-1.433.049-2.66-.099-4.143.098l-.922-.245c1.177-.246 2.558-.54 3.99-.59l1.022.05zm-.205-3.15c.052.294.052.736.052.981-1.586-.098-3.12.147-4.91.246-.255-.099-.51.05-.766-.246-.154-.294.256-.345.46-.393 1.635-.196 3.477-.294 5.164-.589zm-.46-1.48c-.665-.099-1.585-.196-2.403 0-.615-.196-2.28.34-2.841.29-.894-.963 3.66-.831 5.143-1.273.151.196.151.687.1.982zm-.307-3.4c0 .344.255.637.05.981-.46.295-1.278-.048-1.943.148-.102-.294-.255.049-.41.049-1.124-.147-2.096.344-3.017-.245v-.589c1.075-.492 2.454 0 3.529-.393.563.097 1.177.048 1.791.048zm0-1.875c-.102.148-.052.344-.052.54-.102-.146-.256 0-.358.099-1.329-.196-2.812.196-4.142-.294l-.307-.147c1.637-.247 3.274-.59 4.86-.198zm-.102-2.246c.103.246.103.933-.46.736-1.484-.049-3.272.442-4.757-.147-.051-.246.308-.393.563-.49 1.586.147 3.018-.246 4.654-.1zm-.205-2.349c-.153.344.359 1.08-.153 1.13-.818-.05-1.892-.148-2.66-.148-.562-.147-1.33.196-1.738-.294 1.33-.246 2.66-.688 3.989-.295.306-.05.205-.541.562-.393zm.051-1.606c-.408.59-.767-.294-1.227.245-.921.05-1.79.098-2.813.147-.306-.05-.715-.147-.767-.54.462-1.229 1.586-.638 2.558-1.032.868.344 3.017-.835 2.25 1.18zm-.307-2.812c-1.585-.098-3.171.933-4.655.05.666-.639 1.79-.246 2.711-.541.769.441 2.2-.933 1.944.49zm.256-2.89c-.153.344-.051 1.18-.766.884-1.023.442-2.097-.245-3.172.148-.563-.098-1.023.049-1.278-.59 1.022-.294 1.994-.146 3.067-.294.718-.05 1.536-.394 2.149-.148zm.307-2.383l.05.982c-.97-.196-2.045.246-3.221-.049-.563.345-1.536.097-2.098 0 .971-1.424 2.761-.393 4.091-.933.41.343.717-.197 1.178 0zM14.1 36c-.715-.048-1.431-.147-2.147.05-.308-.59-.666.197-1.227-.098-.768.244-1.535-.05-2.353-.197.05-.295.05-.736.46-.835 1.893-.246 3.478-.147 5.217-.688-.051.64.153 1.13.05 1.769zm-.152-3.28c-1.842.394-3.478.394-5.473.197l.511-.393c1.484-.295 3.274-.196 4.808-.492.41.099 0 .443.154.688zm-.256-2.24v.295h-.971c-1.228-.05-2.66.295-3.836-.196 1.278-.737 3.323-.05 4.807-.099zm-.05-3.148c.101.54.101 1.178 0 1.719-1.79-.246-3.325.147-4.86-.688.46-.345 1.125-.688 1.841-.786.46.049.768-.294 1.176-.442zm0-1.776v.344c-.615-.246-1.126.197-1.688-.05-.666-.098-1.28-.049-2.148.1A1.803 1.803 0 008.78 25.8c1.484-.54 3.324-.245 4.86-.245zm0-1.856c.101.148.05.393.05.59-1.432 0-2.658-.05-3.99-.099 1.125-.49 2.558-.245 3.94-.49zm.101-2.021c-.102.198-.051.442-.102.689-1.278.294-2.813-.148-3.938.147-.307-.443-.921.196-1.228-.344 1.177-.638 3.12-.197 4.552-.394.256.001.511-.294.716-.098zm-.102-1.468v.147c-1.687 0-3.324.246-5.114-.196l-.103-.099c.716-.54 1.893 0 2.761-.245.769.59 2.404-.932 2.456.393zm-.052-2.389c-.051.295.103.59-.307.59-1.381.098-2.762.05-4.297-.049l-.153-.197c1.535-.393 3.223-.246 4.757-.343zm57.374-3.797l-.864.053c-.217-.77-.379-1.488-.325-2.359.972.41.81 1.539 1.189 2.306zm5.686.053l-1.945.052c-.108-.719-.162-1.59.054-2.257-.054-.257-.27-.564.054-.77.648.923 1.026 2.258 1.838 2.975zm-30.288-.205c.162.205-.054.513-.271.513-.703-.668-.379-2.104-.65-3.13l.271-.307c.866.667.434 2.052.65 2.924zm38.284.205v.46l-1.407-.05c.11-1.232.325-2.464.055-3.642 1.081.77 1.028 2.103 1.353 3.231zm-56.163-3.13c.487 1.386.703 3.028.865 4.463l.27.257c-.216.205-.811.103-1.244.103.325-.873-.324-1.795.055-2.565-.162-.82-.271-1.64-.11-2.359zm-4.548.822c.108 1.385.054 2.718.541 4.104l-.649.102c-.54-1.385-.324-2.975-.486-4.616l.217-.513zm55.381 2.36c-.215.256-.594.051-.972.102.11-.82-.109-1.898-.378-2.77l.378-.666c.704.974.487 2.205.972 3.334zm-14.615-.105c-.378.258-.811-.255-1.081-.1-.433-.977-.541-2.053-.649-3.13 1.838.205 1.244 2.052 1.73 3.23zm25.35.669l-1.567-.053.108-3.897c1.568.666 1.08 2.565 1.46 3.95zm-75.155-1.59c-.161.82.217 1.743.326 2.615.162.257.595.566.864.257l.11-.513c-.055-1.385-.487-2.821-.11-4.155.92.924.054 2.463.703 3.489 0 .512-.108 1.127.055 1.488-.757.153-1.676 0-2.487-.104.27-1.026-.216-1.847-.054-2.923-.216-.616-.379-1.488-.108-2.155l-.054-.359c.81.41.648 1.487.756 2.36zm72.273-.155c-.433.463 0 1.129-.164 1.59-.162 0-.323.156-.54.104.325-1.436-.648-2.667-.486-3.95 1.568-.052.811 1.436 1.19 2.256zM73.02 11.564c-.108.769.864 2.257-.323 2.565-.704-.053-.272-.872-.109-1.18-.054-.77-.433-1.59-.272-2.256.541-.053.541.512.704.871zm-28.912 2.923c-.324.154-.648.052-.92-.102a4.08 4.08 0 01.326-1.077c.054-.822-.379-1.744-.271-2.616 1.352.82.703 2.512.865 3.795zm37.22-3.846c.54.974.217 2.513.596 3.693h-1.136c.378-1.18-.432-2.309-.054-3.488.215 0 .378-.205.594-.205zm-20.376.666l.92 2.718c-.812 0-1.73.155-2.543.105-.215-1.079-.323-2.105-.648-3.181.325.461.703 1.025 1.19 1.385.325.462-.325 1.23.432 1.539.433.152.433-.155.757-.36-.162-.924-.487-2-.65-2.872.435-.052.379.41.542.666zm-29.265 1.59c.11.872 0 1.898.326 2.719-.326.307-.811.051-1.027.051.216.154.27-.257.432-.36.108-1.59-.432-3.18-.486-4.667.918.513.323 1.539.755 2.257zm-5.033-1.333c0 1.436 0 3.026.27 4.206-.216.205-.81.205-1.135 0 .324.102.54-.36.648-.616-.324-.461-.162-1.333-.108-1.846l-.216-2.668c.432.103.27.616.54.924zm40.713.821c-.108.82.972.872 1.08 1.64h-1.893c-.27-1.127-.54-2.256-.54-3.487 1.028 0 1.082 1.18 1.353 1.847zm-18.964.204c-.432.668.541 1.898-.595 1.744.109-1.18-.217-2.616 0-3.796.595.462.487 1.334.595 2.052zm-8.823.975c-.163.565.216 1.077.162 1.693l-1.028.052c.379-.616-.216-1.232.271-1.847l-.054-2.924c.864.718-.162 2.257.648 3.026zm-20.518-.872c-.379 1.232.432 2.412.109 3.592l-.812-.104c-.216-1.948-.378-3.847.162-5.642.81.41.488 1.334.54 2.154zm15.725 2.872c-.378-.051-.648.308-1.026.052.108-1.744-.217-3.13-.434-4.873l.163-.308c1.243 1.385.866 3.489 1.297 5.13zm57.496-4.77l.54 3.693c-.162.206-.702.154-1.08.052.163-1.385-.27-2.82-.378-4.154.432-.155.595.256.918.41zM41.686 14.95c-.162 0-.325-.052-.433.052-.054-.513-.325-1.283-.108-1.847.108-.923-.217-1.948 0-2.769 1.352 1.077.379 3.23.54 4.564zm53.555-3.027c.108.873.324 2.155-.217 2.821-.704.103-.272-.667-.596-.87.433-.617-.323-1.284-.27-2.002.27-.564-.107-1.076 0-1.538.866.102.812 1.026 1.083 1.589zm-44.506 1.795c.162.104.433.307.487.462-.541.205-.919-.155-1.406.154-.109-.41-.054-.616-.054-1.077.81-.616-.271-1.283 0-2.103l.054-.821c.703.924.703 2.206.919 3.385zm-28.712 2.206c-.324.205-1.027.205-1.297.103.054-.616-.38-1.179.162-1.641-.378-1.283-.162-2.82-.324-4.052 1.621 1.384.594 3.796 1.46 5.59zm34.964-2.666l.38.82c-.487 0-1.136.308-1.514-.053-.325-1.178.054-2.665-.595-3.59l.053-.308c1.027.77 1.135 2.104 1.676 3.13zm-3.316-.924c0 .564.271 1.128.271 1.744l-1.405.103c.54.052.27-.513.433-.77-.324-1.179 0-2.257-.163-3.282.594.513.65 1.436.864 2.205zm44.262-1.641c.488 1.128.27 2.77.218 4-.379.31-.866.104-1.353.104.109-.975.217-2.052-.109-3.027.272-.462.218-1.18.489-1.693.378-.051.647.308.755.616zm-60.561 3.407c.051.279-.104.79.155 1.067-.362-.046-.672.325-1.086.094.362-.326-.155-1.114.207-1.438-.258-.65-.052-1.346-.362-1.996l.31-1.068c1.034.743.465 2.274.776 3.341zm62.321-3.89c.972-.449 2.53-.35 3.448.224.634.4.861 1.057.952 1.904.079.754.18 1.346-.232 1.94-.435.63-.945.803-1.637.803-.556 0-.892.044-1.416-.177-1.22-.514-2.072-2.088-1.094-3.068.527-.528 1.16 0 .805.657-.463.462.06 1.012.636 1.254.394.165.649.106 1.07.106.344 0 .618-.038.834-.354.212-.306.047-.621.005-1.01-.043-.415-.095-.774-.408-.97-.623-.39-1.927-.47-2.585-.164-.643.296-1.02-.847-.377-1.144zm-90.81 1.222c.97-.449 2.528-.352 3.445.223.635.4.863 1.058.953 1.905.077.754.178 1.345-.233 1.938-.434.631-.944.803-1.636.803-.557 0-.893.045-1.416-.176-1.22-.514-2.073-2.088-1.093-3.068.526-.529 1.16 0 .803.657-.461.462.061 1.011.636 1.254.395.166.652.106 1.07.106.345 0 .618-.04.835-.355.212-.304.046-.62.005-1.009-.044-.416-.098-.775-.41-.971-.62-.389-1.926-.468-2.583-.164-.643.298-1.02-.845-.376-1.143zm1.648 86.292c.971-.45 2.528-.352 3.446.223.635.4.862 1.058.951 1.905.079.753.18 1.346-.231 1.938-.435.632-.946.802-1.636.802-.556 0-.893.047-1.416-.174-1.22-.515-2.072-2.087-1.094-3.069.527-.526 1.162 0 .804.657-.461.464.06 1.012.636 1.255.395.165.65.104 1.07.104.345 0 .617-.038.834-.353.213-.305.045-.62.006-1.007-.045-.417-.098-.777-.41-.972-.62-.39-1.926-.469-2.583-.165-.643.298-1.02-.846-.376-1.144zm88.97-1.45c.97-.45 2.528-.352 3.446.223.634.401.862 1.057.952 1.905.079.754.18 1.346-.232 1.939-.434.632-.946.804-1.635.804-.558 0-.894.043-1.418-.176-1.218-.514-2.072-2.088-1.094-3.068.528-.529 1.161 0 .805.656-.461.462.061 1.013.636 1.255.395.165.65.105 1.07.105.343 0 .617-.039.835-.353.21-.305.045-.621.004-1.01-.045-.416-.097-.775-.41-.971-.62-.39-1.926-.467-2.584-.164-.641.296-1.017-.848-.375-1.145zm-27.02-80.225c.722-.14 1.5-.093 2.171.092.568-.138 1.24.093 1.81 0 1.964.047 4.083.418 6.15.326.568.046 1.397.232 1.913 0 3.721.51 7.445.232 11.218.184.518-.231 1.035.233 1.448.047.207 2.181-.206 3.066-.414 3.854-.31 8.91.776 17.493.207 26.82-.363 1.948-.31 3.944-.466 5.893.259 2.598.155 5.615-.051 8.306.362 1.251-.053 2.877.362 4.269-.053 4.872 1.034 9.326.464 13.874.414 5.057.104 10.393-.413 15.172-.569-.232-1.603.464-2.224-.185-1.241-.325-1.965.65-3.256.232-.57.417-1.189-.278-1.758.093-2.326-.14-4.963.185-7.084-.14-2.377-.742-4.962-.091-7.341-.185-2.429.14-4.962.417-7.237.232-1.861-.882-3.826.048-5.583-.417-1.034.048-1.862.093-2.947.279-.569.138-.93 0-1.55.138-1.654-.092-2.999-.743-4.809-.603-.516-.045-1.292-.279-1.809-.091-.362-.093-.827-.28-1.24 0-.982-.14-1.759.277-2.74-.048-.827.186-1.706-.092-2.585.232-1.344 0-2.895.233-4.188 0-1.551.279-3.154-.046-4.55.047-1.602-.184-3.205-.231-4.652-.834-.879.046-1.81-.047-2.689-.093-1.344-.14-2.583.278-3.722-.14-.826.092-1.344.14-2.171.187-.569.139-.982.139-1.55.232-1.035.231-1.914-.232-2.845.138.931-2.504-.465-5.15-.362-7.655.516-2.228-.051-4.408.207-6.589-.104-3.526-.465-7.238-.776-10.857-.155-2.18-.206-4.316-.62-6.496.258-.975-.258-1.81.155-2.738-.155-3.526-1.19-6.775-1.137-10.394-.155-.742-.31-1.53-.155-2.32-.104-.835.465-1.53.258-2.32.517-2.645.052-5.521.207-8.26-.207-.278 0-.835-.155-1.206-.414-4.454.104-9.234-.414-13.641.207-.372-.176.116-.073-3.318.414-.325.958-.175 1.372-.129 2.326-.464 4.699-.037 6.922-.362 1.758.093 3.773-.185 5.687-.232 4.498-.372 8.013.696 12.303-.418 4.032-.138 8.427-.51 12.356-.742.62.232 1.344-.233 2.066.046 3.36-.463 6.825-.279 10.34-.418.725.372 1.397-.277 2.172.093 1.296-.232 2.588-.093 3.778.046z"/><text style="line-height:1.25;-inkscape-font-specification:'Casablanca Antique'" x="249.851" y="393.814" font-weight="400" font-size="12" font-family="Casablanca Antique" letter-spacing="0" word-spacing="0" stroke-width=".3" transform="matrix(.91892 0 0 .91892 -80.51 -309.16)"/><path d="M88.954 54.34s-.714.116-.714.407-.295.35-.295.524c0 .176-.06.7.356.874.414.176 1.366.234 1.485 0 .12-.232.476-.931.238-1.223-.238-.292-.357-.932-.714-.757l-.356.174zM47.516 72.276s-.548.09-.548.314-.23.27-.23.404-.045.538.275.671c.32.135 1.05.18 1.144 0 .09-.179.365-.717.181-.94-.181-.224-.274-.717-.548-.583l-.274.134z" fill="#42b859"/><g style="line-height:1.25;-inkscape-font-specification:'Casablanca Antique'" aria-label="WEB GIS" font-weight="400" font-size="133.333" font-family="Casablanca Antique" letter-spacing="0" word-spacing="0"><path d="M145.137 70.38l-.977.644-.918-.41q-.332-.82-.566-2.07-.234-1.27-.43-1.876-.175-.625-.8-1.601-.41-.508-.801-1.211-.39-.703-.918-1.68v-.723l-.469-.84-.84-.078q-.761.86-1.191 1.72-.41.859-.703 2.167v.567l-.157.312-.156.84-.996 1.797q-.312 1.035-.508 1.62-.175.567-.547 1.153l-.84.313-1.113-1.368-.039-.996q-.41-.742-.761-1.738-.332-1.016-.743-2.266-.41-1.25-.78-1.992l-.47-1.445-.078-.508-.527-.644q-.313-1.426-.313-3.047-.664-.938-1.152-1.934-.469-.996-.879-2.246-.41-1.27-.703-2.48-.293-1.23-.547-2.266l-1.21-1.953-.43-.527-1.29-.391q-.175-.274-.43-.567-.234-.312-.41-.566-.156-.254-.331-.586-.176-.351-.313-.8l.723-.196 2.636.43 1.817-.078.625.078 1.015.254 2.676-.489.352.235.234.957.332.605-.488.645q-.547.254-.703.488-.137.215-.45 1.074l.313 1.23.332.489.078.957.352 1.328q.078.625.644 1.778.567 1.152.645 1.933-.059.176-.254.8.156.606.488.997l-.078.645.996.917.762 1.875q-.195.586-.313 1.016-.117.43-.117 1.035.45.43.742.625.313.196.801.254.176-.078.332-.078.215-1.035.547-1.816.352-.801.938-1.387.527-1.27.996-3.926-.235-.644-.782-1.777-.527-1.153-.742-1.64-.215-.509-.37-1.173l-.079-.722q-.508-.586-.957-1.446-.45-.859-.977-1.855-.507-1.016-1.015-1.7l-.645-.156q-.527-.78-.605-1.406.078-.234.078-.723l.605-.078h1.211l1.875.157 1.407-.196 2.03-.078 1.153.078 1.25.196h2.031l2.247-.352.878.078.918 1.309-.195.605q-2.187.781-3.437 2.051l-.157.957q-.449.684-.976 2.05-.508 1.348-.586 1.505l-.332 1.367q.254 1.035 1.015 2.715v1.23q.079 1.25.333 1.992.253.723 1.132 1.368l-.078.976.567.664.644.254.274-.41v-.684q.449-.527.722-1.054.274-.528.645-1.446.39-.937.508-1.171l.253-1.485.391-.469q.195-1.132.527-2.246.352-1.113.762-2.187.43-1.074.918-2.461v-2.07l-.723-1.114-1.796-.761-.254-.801.332-.762.879-.078 2.636.234 2.364-.234.996-.078.488.742q-.117 1.172-.625 1.992-.508.82-1.582 1.543l-.234.723-.332.234q-.293 1.797-.567 3.106-.273 1.289-.781 2.675-.508 1.368-1.29 2.344-1.054 3.008-1.737 5-.664 1.992-1.348 4.414-.684 2.403-1.074 4.453zm-3.77-25.645l-.644-.313q-.43.234-1.914.567l-.234.546q.468.743.644 1.407.195.644.195 1.64l.313.996.488.332.586-.527q.723-2.09.723-3.242 0-.43-.157-1.406zM166.524 54.656l1.718-.156 1.016-.508.625-.253.606-.958.957-.917.605.078.234 1.328-.078 1.035-.273.684.351 3.828-.761.683-1.114-.761-.351-.88-1.719-.605-1.21-.8-1.231-.235-.762.234-.078.723.351.84.157 1.289-.43 1.914.156.645v.84l.196.8-.196 1.719.352 1.953 1.484 1.25 1.446.078 1.406-.234.586-.254 1.035-.078 1.015-.274 1.31-1.523.331-.918.879-1.484.84-.235.469.235.078 1.796-.39.528.312 2.031-.157 1.133-.722.84h-1.485l-5.078-.078-1.152.156-4.2-.313-1.523.157h-3.476l-1.211-.606.175-.566.958-.547.917-.567.645-.761.234-.996.118-2.364.078-1.953-.078-.762.156-1.289-.078-.996v-1.328l.488-.625v-.84l-.566-.8.234-1.25-.156-.723.156-1.152.332-1.075.39-1.054q-.038-.586-.214-1.758-.176-1.192-.254-1.836l-.254-.84-1.992-1.562-.801-.801.312-.684 1.172-.156 2.364.332 1.308.273 1.973-.351 1.074.078.996-.078 1.524-.254 1.406.156h1.074l1.152.41 1.72-.156 1.21.078 1.387.684.45.469.39 2.714-.235 1.055-.507.156-.977-.879-.43-.918-3.281-1.718-.879-.157-1.484.313-.88-.41-1.152-.313h-.917l-.801.41-.332.918.332 1.114.156 1.074-.684 2.207.45 1.484.078.996-.254.801v.996l.254.84zM192.54 56.14h-.704l-1.816-.35-.996.156-.88.507-.683 1.739.254 1.113-.254 1.074-.625 1.328.235.723.468.664v1.055l-.156.918-.312.879.156.918.84.644 2.129.586 2.03.098 1.485-.254.88-.43.605-.879.468-1.484.078-1.25.254-.88.078-.917-.644-2.266-.156-1.093-1.094-2.032-.8-.488zm-1.036-11.913l-.508.078-1.406-.234-.8.078-.84.683-.313 1.114.234.918q-.117.585-.312 1.269-.176.684-.254 1.094v.918l.332.8.156.684v.625l.156.84.997.723 1.406.078 1.152-.078h1.133l1.152-.391 1.153-1.172.566-.957.078-1.152V47.86l-.156-.684-.488-1.113-.508-.45-.254-.39-.469-.567-.84-.351h-.644zm-10.84-.957q-.097-.176-.566-.684l.488-.41.918-.156h.645q.8 0 2.07.312 1.27.293 1.602.332l1.171-.234h1.153l.957.078 1.25.078h2.363l1.543.195 1.816.958 2.481 1.972.547.586.566 2.05v.802l.274.996.078.918-.43 1.191-.644.84-.918.332-.391.313-.488.488-.645.273-.683.41v.47l2.656 2.206.312.762.645 1.035q.215.898.351 1.64.157.723.313 1.407l.098.996-.098.8-.234 1.153-.762 1.719-.625.488-.684.195-1.054 1.036-2.032.683-1.562.156-1.309.176h-2.168l-2.285.078-.957-.175-1.64-.079-2.403.254-.996-.175-.957-.352.644-.644.918-.723.547-.918v-.879l.41-.273.079-1.29.039-1.992-.04-1.64-.078-5.88V52.86l.079-1.914.273-.957-.156-.997-.117-.898v-1.465l-.079-1.25-.488-1.074-.722-.645zM230.274 62.43l-1.328-.078-.645-.254-.351-.645.43-.586 1.718-.078 2.852.157.84-.079h3.202l.625.196v1.035l-.156.996-.644.645-.352.644-.234 1.074v1.895l.234.996v.8l-.879.352-.84.078-3.164.723-.918-.078-.84.078-.566.234-1.465.254h-.898l-1.953.157h-2.07l-1.973-.567-3.36-1.953-.39-.488q-1.836-1.66-3.047-3.028l-.88-1.64-.038-.489q-.098-.312-.313-.84-.214-.546-.41-.995-.195-.47-.312-.88l-.078-1.874-.079-1.172-.175-.996v-1.29l.175-.917.547-1.641.078-1.387.254-.566.235-.84.996-1.445.488-.84 1.64-1.797 1.993-1.406 1.64-.88 2.442-.585.8-.488h.684l1.075-.078h3.164l1.23.078 1.797.41 1.484.664 1.407.644 1.484.489.879.351.195.645.078 2.715-.117 2.441-.234.645-.88-.235-1.484-1.562-.683-1.641-.488-.566-.157-.645-.8-.234-.43-.196-1.719-.644-4.766-.8-.8-.118q-1.836.527-3.926 2.148l-.352.176-.41.547-.469 1.094-.488.8-.351.313v.762l-.235.8-.176.762-.234.469-.39.605-.098.41v.704l.254.605.078 1.797v1.367l.156.43-.234.645v.84l.234.331.078.801.235 1.719.761 2.148 1.29 1.72 1.406.878 1.875.605 2.714.489 1.563.078 2.793-.488.644-.762.645-2.11-.488-2.285zM247.227 57.703l-.156 1.036.078.84-.157 1.21-.234.508.234.645.157 1.484v1.406l-.078.469.078 1.25.488 1.23.684 1.036.78.605-.234.567-1.386.156-2.442-.235-.84.157-.488.156-.722-.078-.762.078-.723-.078-.586-.567-.332-.43q.567-.742 1.563-1.64l.761-1.367v-2.149l.235-2.128-.235-.801.157-1.407-.078-1.386v-1.406l-.196-.645v-1.074l-.078-1.25.43-2.11-.078-1.074-.352-1.328.078-1.445v-1.23l-.566-1.563-.957-.723-.918-.43-.313-.644 1.387-.918q2.52.137 3.926.351l.918-.351.644-.078.88.234 1.23-.078.527.684-.273.625-.801.683-.41.567h-.196l-.488.644-.234 1.309v1.719l.156 3.125-.234.312.078 1.016zM251.739 63.739l-.313-.313.156-.918.645-.41 1.152.683.254 1.114.8.488.313.606q.996.605 1.895 1.289.898.683 1.523 1.093.625.41 1.387.664.781.254 2.266.547.566-.117 1.504-.41.937-.312 1.62-.469.958-1.132 1.387-1.836.43-.703.586-1.718-.351-1.094-.527-2.442l-.723-.41q-1.152-.547-3.066-1.836-1.914-1.289-2.168-1.445l-.234-.664-.762-.254-1.817-.156-.39-.235q-.156 0-.41.078-.43-.058-.664-.195-.215-.156-.723-.644l-.84-.235-.8-.644q-.04-.801-.508-2.168-.45-1.368-.489-2.032.156-.82.156-1.035 0-.41-.078-.527.078-1.25.762-2.676l.8-.762.587-1.445q2.09-1.426 4.297-1.953 2.207-.527 5.039-.527 5.351 0 6.074 1.406l.234.957-.234.43v.722l.8 1.797-.156 1.973-.488.273q-.86-.644-1.21-1.094-.352-.468-.587-1.386-.625-.371-1.797-1.211-1.171-.84-1.796-1.23l-1.25-.352h-1.23q-2.267 0-3.575.742-1.309.742-1.992 2.89v1.29l.39.996.84.469.723.683 6.797 3.36.683-.079.332.254.547.547 1.485 1.172.312.957q2.031 2.637 2.324 5.762-.293 1.113-1.074 3.105l-.488.567q-.762 1.132-1.524 1.718-.761.567-2.187 1.172h-.567q-.976.313-2.812.586-1.836.293-2.5.45l-2.402-.079q-2.032-1.23-4.883-1.367l-1.153-.762-.253-.996V66.22l.175-1.152-.175-.645z"/></g></svg>